<?xml version="1.0" encoding="UTF-8"?>
<svg width="323px" height="617px" viewBox="0 0 323 617" version="1.1" xmlns="http://www.w3.org/2000/svg" xmlns:xlink="http://www.w3.org/1999/xlink">
    <!-- Generator: Sketch 63.1 (92452) - https://sketch.com -->
    <title>faixas coloridas</title>
    <desc>Created with Sketch.</desc>
    <g id="Unidos-2021-Landing-Page" stroke="none" stroke-width="1" fill="none" fill-rule="evenodd">
        <g id="Home-HD" transform="translate(-1117.000000, -102.000000)">
            <g id="faixas-coloridas" transform="translate(1117.000000, 102.000000)">
                <polygon id="Fill-1" fill="#44C7F4" points="0 0 0 617 25.9986205 617 26 0"></polygon>
                <polygon id="Fill-2" fill="#3D71B7" points="25.0013796 0 25 617 51 617 51 0"></polygon>
                <polygon id="Fill-3" fill="#008C45" points="50 617 76 617 76 0 50 0"></polygon>
                <polygon id="Fill-4" fill="#7EC252" points="74 617 100 617 100 0 74 0"></polygon>
                <polygon id="Fill-5" fill="#F9A51A" points="99 617 125 617 125 0 99 0"></polygon>
                <polygon id="Fill-6" fill="#F16522" points="124 617 150 617 150 0 124 0"></polygon>
                <polygon id="Fill-7" fill="#ED3C95" points="150 617 176 617 176 0 150 0"></polygon>
                <polygon id="Fill-8" fill="#EE4050" points="175 617 201 617 201 0 175 0"></polygon>
                <polygon id="Fill-9" fill="#C61B37" points="200 617 226 617 226 0 200 0"></polygon>
                <polygon id="Fill-10" fill="#0090C7" points="225 617 251 617 251 0 225 0"></polygon>
                <polygon id="Fill-11" fill="#0B6989" points="249 617 275 617 275 0 249 0"></polygon>
                <polygon id="Fill-12" fill="#31BBAC" points="274 0 274 617 299.997241 617 300 0"></polygon>
                <polygon id="Fill-13" fill="#C9DA2A" points="299.002759 0 299 617 325 617 325 0"></polygon>
            </g>
        </g>
    </g>
</svg>