<svg height="14" viewBox="0 0 8 14" width="8" xmlns="http://www.w3.org/2000/svg"><path d="m41.6991859 1.00293378-1.9185941-.00293378c-2.1563509 0-3.5498126 1.35247276-3.5498126 3.44621403v1.58815311h-1.9299651c-.1664298 0-.3008141.12615256-.3008141.28555463v2.30106174c0 .15744622.1343843.28555463.3008141.28555463h1.9299651v5.80790726c0 .1574462.135418.2855546.3018478.2855546h2.517121c.1664298 0 .3018478-.1281084.3018478-.2855546v-5.80790726h2.2555886c.1674635 0 .3018478-.12810841.3018478-.28555463l.0010337-2.30106174c0-.07627829-.0320455-.14864488-.0889004-.20340878-.0558211-.05183012-.1323168-.08214585-.2129474-.08214585h-2.2566223v-1.3466052c0-.64836546.1633286-.97597094 1.0543998-.97597094h1.2921566c.1674635 0 .3018478-.12810841.3018478-.28555462v-2.13774798c0-.15744621-.1343843-.28457669-.3008141-.28555462" fill="#231f20" fill-rule="evenodd" transform="translate(-34 -1)"/></svg>