<?xml version="1.0" encoding="UTF-8"?>
<svg width="16px" height="16px" viewBox="0 0 16 16" version="1.1" xmlns="http://www.w3.org/2000/svg" xmlns:xlink="http://www.w3.org/1999/xlink">
    <!-- Generator: Sketch 63.1 (92452) - https://sketch.com -->
    <title>Group 7</title>
    <desc>Created with Sketch.</desc>
    <defs>
        <polygon id="path-1" points="0.2519 0.4615 15.7899 0.4615 15.7899 16 0.2519 16"></polygon>
    </defs>
    <g id="Unidos-2021-Landing-Page" stroke="none" stroke-width="1" fill="none" fill-rule="evenodd">
        <g id="Home-HD" transform="translate(-1276.000000, -43.000000)">
            <g id="Stacked-Group" transform="translate(1214.000000, 43.000000)">
                <g id="Group-7" transform="translate(62.000000, 0.000000)">
                    <mask id="mask-2" fill="white">
                        <use xlink:href="#path-1"></use>
                    </mask>
                    <g id="Clip-6"></g>
                    <path d="M12.9079,3.3545 C13.0959,3.5415 13.2039,3.8035 13.2039,4.0695 C13.2039,4.3345 13.0959,4.5965 12.9079,4.7845 C12.7199,4.9715 12.4589,5.0815 12.1929,5.0815 C11.9269,5.0815 11.6659,4.9715 11.4789,4.7845 C11.2899,4.5965 11.1819,4.3345 11.1819,4.0695 C11.1819,3.8035 11.2899,3.5415 11.4789,3.3545 C11.6659,3.1665 11.9269,3.0585 12.1929,3.0585 C12.4589,3.0585 12.7209,3.1665 12.9079,3.3545 M8.0209,10.8565 C6.5739,10.8565 5.3959,9.6785 5.3959,8.2315 C5.3959,6.7845 6.5739,5.6065 8.0209,5.6065 C9.4689,5.6065 10.6459,6.7845 10.6459,8.2315 C10.6459,9.6785 9.4689,10.8565 8.0209,10.8565 M8.0209,4.2275 C5.8139,4.2275 4.0169,6.0235 4.0169,8.2315 C4.0169,10.4385 5.8139,12.2355 8.0209,12.2355 C10.2289,12.2355 12.0249,10.4385 12.0249,8.2315 C12.0249,6.0235 10.2289,4.2275 8.0209,4.2275 M11.5019,14.6225 L4.5399,14.6225 C2.9359,14.6225 1.6309,13.3165 1.6309,11.7115 L1.6309,4.7505 C1.6309,3.1455 2.9359,1.8405 4.5399,1.8405 L11.5019,1.8405 C13.1059,1.8405 14.4109,3.1455 14.4109,4.7505 L14.4109,11.7115 L14.4119,11.7115 C14.4119,13.3165 13.1059,14.6225 11.5019,14.6225 M11.5019,0.4615 L4.5399,0.4615 C2.1759,0.4615 0.2519,2.3855 0.2519,4.7505 L0.2519,11.7115 C0.2519,14.0775 2.1759,16.0005 4.5399,16.0005 L11.5019,16.0005 C13.8659,16.0005 15.7899,14.0775 15.7899,11.7115 L15.7899,4.7505 C15.7899,2.3855 13.8659,0.4615 11.5019,0.4615" id="Fill-5" fill="#231F20" mask="url(#mask-2)"></path>
                </g>
            </g>
        </g>
    </g>
</svg>