<?xml version="1.0" encoding="UTF-8"?>
<svg width="133px" height="46px" viewBox="0 0 133 46" version="1.1" xmlns="http://www.w3.org/2000/svg" xmlns:xlink="http://www.w3.org/1999/xlink">
    <!-- Generator: Sketch 63.1 (92452) - https://sketch.com -->
    <title>Group 71</title>
    <desc>Created with Sketch.</desc>
    <defs>
        <polygon id="path-1" points="0 46.0154139 132.518799 46.0154139 132.518799 0.000184722222 0 0.000184722222"></polygon>
    </defs>
    <g id="Unidos-2021-Landing-Page" stroke="none" stroke-width="1" fill="none" fill-rule="evenodd">
        <g id="Menu-HD" transform="translate(-29.000000, -14.000000)">
            <g id="barra-topo">
                <g id="Group-2">
                    <g id="Group-71" transform="translate(29.000000, 14.000000)">
                        <path d="M45.3964097,40.9365687 C45.3474583,41.0538674 45.2800347,41.1526937 45.1932153,41.2339715 C45.1073194,41.3161729 45.003875,41.3789785 44.8838056,41.425159 C44.7637361,41.4713396 44.6325833,41.4944299 44.4903472,41.4944299 L43.4355833,41.4944299 L43.4355833,39.629659 L44.4903472,39.629659 C44.6787639,39.629659 44.8468611,39.6702979 44.9946389,39.7524993 C45.1424167,39.8337771 45.2587917,39.9446104 45.3428403,40.0840757 C45.4268889,40.2244646 45.4684514,40.3833257 45.4684514,40.5625062 C45.4684514,40.6945826 45.4444375,40.8192701 45.3964097,40.9365687 M45.4647569,39.0256174 C45.18675,38.8732215 44.8773403,38.7965618 44.5365278,38.7965618 L42.5572292,38.7965618 L42.5572292,44.147041 L43.4355833,44.147041 L43.4355833,42.3275271 L44.5365278,42.3275271 C45.0555972,42.3275271 45.4896944,42.1594299 45.8360486,41.8232354 C46.1824028,41.487041 46.3551181,41.0667979 46.3551181,40.5625062 C46.3551181,40.2309299 46.2766111,39.9298326 46.1186736,39.6601382 C45.9607361,39.3895201 45.7427639,39.1789368 45.4647569,39.0256174" id="Fill-1" fill="#000000"></path>
                        <path d="M51.8774813,42.8513993 C51.5126549,43.2199201 51.0545438,43.405566 50.5013007,43.405566 C49.9489813,43.405566 49.4890229,43.2199201 49.1223493,42.8513993 C48.7556757,42.4819549 48.5718771,42.0219965 48.5718771,41.4715243 C48.5718771,40.9210521 48.7556757,40.4610938 49.1223493,40.0925729 C49.4890229,39.7222049 49.9489813,39.5374826 50.5013007,39.5374826 C51.0545438,39.5374826 51.5126549,39.7222049 51.8774813,40.0925729 C52.241384,40.4610938 52.424259,40.9210521 52.424259,41.4715243 C52.424259,42.0219965 52.241384,42.4819549 51.8774813,42.8513993 M53.3183146,41.4715243 C53.3183146,40.6772188 53.0504674,40.0159132 52.5156965,39.4876076 C51.9800021,38.9611493 51.3076132,38.6969965 50.4976063,38.6969965 C49.6875993,38.6969965 49.0152104,38.9611493 48.4804396,39.4876076 C47.9447451,40.0159132 47.6778215,40.6772188 47.6778215,41.4715243 C47.6778215,42.2658299 47.9447451,42.9271354 48.4804396,43.4545174 C49.0152104,43.9828229 49.6875993,44.2460521 50.4976063,44.2460521 C51.0323771,44.2460521 51.5154257,44.1269063 51.9467521,43.8867674 C52.3771549,43.6466285 52.7133493,43.3150521 52.9553354,42.8892674 C53.1973215,42.4634826 53.3183146,41.9905938 53.3183146,41.4715243" id="Fill-3" fill="#000000"></path>
                        <path d="M57.5255479,41.2802444 C57.4054785,41.3218069 57.2743257,41.3412028 57.1320896,41.3412028 L55.9775757,41.3412028 L55.9775757,39.6223625 L57.1320896,39.6223625 C57.4165618,39.6223625 57.6474646,39.7027167 57.8238743,39.8625014 C57.9993604,40.0232097 58.0871035,40.2282514 58.0871035,40.4776264 C58.0871035,40.6060083 58.0640132,40.7223833 58.0187563,40.8304458 C57.9725757,40.9366611 57.9088465,41.0290222 57.8275688,41.1056819 C57.7453674,41.1814181 57.6446938,41.2396056 57.5255479,41.2802444 L57.5255479,41.2802444 Z M57.8885271,42.0449944 C58.2191799,41.9221542 58.4842563,41.7226542 58.6837563,41.4455708 C58.8823326,41.1675639 58.981159,40.8470708 58.981159,40.4859389 C58.981159,40.1645222 58.9035757,39.8745083 58.748409,39.61405 C58.5932424,39.3545153 58.3771174,39.1531681 58.1028049,39.0109319 C57.8275688,38.8677722 57.5218535,38.7966542 57.185659,38.7966542 L55.0992215,38.7966542 L55.0992215,44.1471333 L55.9775757,44.1471333 L55.9775757,42.1669111 L56.9944715,42.1669111 L58.1406729,44.1471333 L59.126166,44.1471333 L57.8885271,42.0449944 Z" id="Fill-5" fill="#000000"></path>
                        <polygon id="Fill-7" fill="#000000" points="65.2107312 44.1466715 65.2107312 39.6145118 66.7854882 39.6145118 66.7854882 38.7961924 62.765009 38.7961924 62.765009 39.6145118 64.3388424 39.6145118 64.3388424 44.1466715"></polygon>
                        <path d="M72.0246722,42.8513993 C71.6598458,43.2199201 71.2017347,43.405566 70.6484917,43.405566 C70.0961722,43.405566 69.6362139,43.2199201 69.2695403,42.8513993 C68.9028667,42.4819549 68.7190681,42.0219965 68.7190681,41.4715243 C68.7190681,40.9210521 68.9028667,40.4610938 69.2695403,40.0925729 C69.6362139,39.7222049 70.0961722,39.5374826 70.6484917,39.5374826 C71.2017347,39.5374826 71.6598458,39.7222049 72.0246722,40.0925729 C72.388575,40.4610938 72.57145,40.9210521 72.57145,41.4715243 C72.57145,42.0219965 72.388575,42.4819549 72.0246722,42.8513993 M72.6628875,39.4876076 C72.1281167,38.9611493 71.4548042,38.6969965 70.6447972,38.6969965 C69.8347903,38.6969965 69.1624014,38.9611493 68.6276306,39.4876076 C68.0919361,40.0159132 67.8250125,40.6772188 67.8250125,41.4715243 C67.8250125,42.2658299 68.0919361,42.9271354 68.6276306,43.4545174 C69.1624014,43.9828229 69.8347903,44.2460521 70.6447972,44.2460521 C71.1795681,44.2460521 71.6626167,44.1269063 72.0939431,43.8867674 C72.5243458,43.6466285 72.8605403,43.3150521 73.1025264,42.8892674 C73.3445125,42.4634826 73.4655056,41.9905938 73.4655056,41.4715243 C73.4655056,40.6772188 73.1976583,40.0159132 72.6628875,39.4876076" id="Fill-9" fill="#000000"></path>
                        <path d="M76.1249514,39.6223625 L77.2794653,39.6223625 C77.5639375,39.6223625 77.7948403,39.7027167 77.97125,39.8625014 C78.1467361,40.0232097 78.2344792,40.2282514 78.2344792,40.4776264 C78.2344792,40.6050847 78.2113889,40.7223833 78.1652083,40.8304458 C78.1199514,40.9366611 78.0562222,41.0280986 77.9740208,41.1047583 C77.8927431,41.1804944 77.7920694,41.2396056 77.6729236,41.2802444 C77.5528542,41.3218069 77.4217014,41.3412028 77.2794653,41.3412028 L76.1249514,41.3412028 L76.1249514,39.6223625 Z M78.2880486,44.1462097 L79.2735417,44.1462097 L78.0359028,42.0449944 C78.3665556,41.9221542 78.6316319,41.7217306 78.8311319,41.4455708 C79.0297083,41.1675639 79.1285347,40.8470708 79.1285347,40.4859389 C79.1285347,40.1645222 79.0509514,39.8735847 78.8957847,39.61405 C78.7406181,39.3545153 78.5244931,39.1531681 78.2492569,39.0109319 C77.9740208,38.8677722 77.6692292,38.7957306 77.3330347,38.7957306 L75.2456736,38.7957306 L75.2456736,44.1462097 L76.1249514,44.1462097 L76.1249514,42.1669111 L77.1418472,42.1669111 L78.2880486,44.1462097 Z" id="Fill-11" fill="#000000"></path>
                        <path d="M81.8646403,39.6223625 L83.0191542,39.6223625 C83.30455,39.6223625 83.5345292,39.7027167 83.7109389,39.8625014 C83.886425,40.0232097 83.9741681,40.2282514 83.9741681,40.4776264 C83.9741681,40.6050847 83.9510778,40.7223833 83.9058208,40.8304458 C83.8596403,40.9366611 83.7959111,41.0280986 83.7146333,41.1047583 C83.6333556,41.1804944 83.5326819,41.2396056 83.4126125,41.2802444 C83.2925431,41.3218069 83.1613903,41.3412028 83.0191542,41.3412028 L81.8646403,41.3412028 L81.8646403,39.6223625 Z M84.0277375,44.1462097 L85.0141542,44.1462097 L83.7755917,42.0449944 C84.1071681,41.9221542 84.3713208,41.7217306 84.5708208,41.4455708 C84.7693972,41.1675639 84.8682236,40.8470708 84.8682236,40.4859389 C84.8682236,40.1645222 84.7906403,39.8735847 84.6354736,39.61405 C84.4803069,39.3545153 84.2651056,39.1531681 83.9898694,39.0109319 C83.7146333,38.8677722 83.4089181,38.7957306 83.0727236,38.7957306 L80.9862861,38.7957306 L80.9862861,44.1462097 L81.8646403,44.1462097 L81.8646403,42.1669111 L82.8815361,42.1669111 L84.0277375,44.1462097 Z" id="Fill-13" fill="#000000"></path>
                        <polygon id="Fill-15" fill="#000000" points="89.8366049 39.6223625 89.8366049 38.7957306 86.7258826 38.7957306 86.7258826 44.1462097 89.9206535 44.1462097 89.9206535 43.3131125 87.6042368 43.3131125 87.6042368 41.8233278 89.6380285 41.8233278 89.6380285 41.0133208 87.6042368 41.0133208 87.6042368 39.6223625"></polygon>
                        <path d="M95.2249521,41.9494931 C95.1889313,41.8654444 95.137209,41.7850903 95.0679382,41.7084306 C94.9986674,41.6317708 94.9367854,41.5689653 94.8804451,41.5172431 C94.8250285,41.4673681 94.7455979,41.4156458 94.6440007,41.3639236 C94.5424035,41.3140486 94.4574313,41.2743333 94.3918549,41.2457014 C94.3253549,41.2179931 94.2311465,41.1847431 94.1092299,41.146875 C93.9863896,41.1090069 93.8931049,41.0822222 93.8293757,41.0665208 C93.7656465,41.0508194 93.6705146,41.0286528 93.5430563,40.9981736 C93.3795771,40.9575347 93.2567368,40.9252083 93.1726882,40.9021181 C93.0886396,40.8799514 92.9851951,40.8448542 92.8623549,40.7986736 C92.7413618,40.7534167 92.6490007,40.7063125 92.5880424,40.6582847 C92.527084,40.6093333 92.4735146,40.5465278 92.427334,40.4698681 C92.3811535,40.3932083 92.3580632,40.3100833 92.3580632,40.2186458 C92.3580632,40.0043681 92.4513479,39.8371944 92.6379174,39.717125 C92.8235632,39.5979792 93.0563132,39.5379444 93.337091,39.5379444 C93.6280285,39.5379444 93.8653965,39.6109097 94.0510424,39.7559167 C94.2376118,39.9009236 94.3308965,40.1004236 94.3308965,40.3553403 L95.2018618,40.3553403 C95.2018618,39.8519722 95.0383826,39.4529722 94.7123479,39.1592639 C94.3863132,38.8664792 93.9328201,38.7205486 93.3518688,38.7205486 C92.7810771,38.7205486 92.3266604,38.8544722 91.9876951,39.1250903 C91.6487299,39.3947847 91.479709,39.7706944 91.479709,40.2482014 C91.479709,40.4070625 91.5000285,40.5492986 91.5406674,40.6767569 C91.5813063,40.8042153 91.6284104,40.9122778 91.6819799,41.0018681 C91.7355493,41.0905347 91.8159035,41.1745833 91.9230424,41.2540139 C92.0301813,41.3325208 92.1225424,41.3953264 92.2019729,41.4405833 C92.2804799,41.4867639 92.3931604,41.5338681 92.5381674,41.5828194 C92.6840979,41.6308472 92.7967785,41.6659444 92.8780563,41.6899583 C92.959334,41.712125 93.0794035,41.7416806 93.237341,41.7767778 C93.3795771,41.8137222 93.486716,41.8395833 93.5587576,41.8571319 C93.6298757,41.8756042 93.7231604,41.9014653 93.8376882,41.9374861 C93.952216,41.9725833 94.0381118,42.0104514 94.0972229,42.0483194 C94.1554104,42.0861875 94.2172924,42.1314444 94.2810215,42.1822431 C94.3447507,42.2339653 94.3900076,42.294 94.4186396,42.3660417 C94.4463479,42.4371597 94.4602021,42.5156667 94.4602021,42.6024861 C94.4602021,42.8370833 94.3586049,43.0273472 94.1544868,43.1723542 C93.9503688,43.3173611 93.7009938,43.3903264 93.4054382,43.3903264 C93.0794035,43.3903264 92.8106326,43.3072014 92.5991257,43.141875 C92.3876188,42.975625 92.2823271,42.7502639 92.2823271,42.4657917 L91.3956604,42.4657917 C91.3956604,42.8213819 91.479709,43.1335625 91.6478063,43.4014097 C91.8159035,43.6683333 92.0514243,43.8742986 92.3552924,44.0165347 C92.6573132,44.1596944 93.0110563,44.2308125 93.4137507,44.2308125 C93.9743826,44.2308125 94.4371118,44.0867292 94.8037854,43.7985625 C95.1713826,43.5103958 95.3551813,43.1067778 95.3551813,42.5867847 C95.3551813,42.4657917 95.3413271,42.3494167 95.3163896,42.2395069 C95.2905285,42.1295972 95.2600493,42.0335417 95.2249521,41.9494931" id="Fill-17" fill="#000000"></path>
                        <polygon id="Fill-19" fill="#000000" points="101.58383 42.8929618 100.017385 38.7958229 99.0457465 38.7958229 101.179288 44.1463021 101.996684 44.1463021 104.083122 38.7958229 103.119795 38.7958229"></polygon>
                        <polygon id="Fill-21" fill="#000000" points="108.852742 43.3132049 106.536325 43.3132049 106.536325 41.8234201 108.570117 41.8234201 108.570117 41.0134132 106.536325 41.0134132 106.536325 39.6224549 108.768693 39.6224549 108.768693 38.7958229 105.657971 38.7958229 105.657971 44.1463021 108.852742 44.1463021"></polygon>
                        <path d="M113.862224,40.1338583 C114.022932,40.2973375 114.147619,40.4931431 114.23721,40.7231222 C114.325876,40.9521778 114.371133,41.2015528 114.371133,41.4712472 C114.371133,42.0115597 114.198418,42.4567403 113.854835,42.8058653 C113.510328,43.1549903 113.071613,43.3286292 112.535918,43.3286292 L111.550425,43.3286292 L111.550425,39.6147889 L112.535918,39.6147889 C112.800994,39.6147889 113.048522,39.6600458 113.277578,39.7524069 C113.506633,39.8438444 113.701515,39.9713028 113.862224,40.1338583 L113.862224,40.1338583 Z M110.671147,38.7964694 L110.671147,44.1469486 L112.559008,44.1469486 C113.343154,44.1469486 113.992453,43.8938792 114.504133,43.3895875 C115.016738,42.8852958 115.272578,42.2461569 115.272578,41.4712472 C115.272578,40.6963375 115.016738,40.0571986 114.504133,39.5529069 C113.992453,39.0486153 113.343154,38.7964694 112.559008,38.7964694 L110.671147,38.7964694 Z" id="Fill-23" fill="#000000"></path>
                        <path d="M117.940059,39.6223625 L119.094573,39.6223625 C119.379045,39.6223625 119.609948,39.7027167 119.786358,39.8625014 C119.961844,40.0232097 120.049587,40.2282514 120.049587,40.4776264 C120.049587,40.6050847 120.026497,40.7223833 119.980316,40.8304458 C119.935059,40.9366611 119.870406,41.0280986 119.789128,41.1047583 C119.707851,41.1804944 119.607177,41.2396056 119.488031,41.2802444 C119.367962,41.3218069 119.236809,41.3412028 119.094573,41.3412028 L117.940059,41.3412028 L117.940059,39.6223625 Z M117.060781,44.1462097 L117.940059,44.1462097 L117.940059,42.1669111 L118.956955,42.1669111 L120.103156,44.1462097 L121.088649,44.1462097 L119.85101,42.0449944 C120.181663,41.9221542 120.44674,41.7217306 120.64624,41.4455708 C120.844816,41.1675639 120.943642,40.8470708 120.943642,40.4859389 C120.943642,40.1645222 120.866059,39.8735847 120.710892,39.61405 C120.555726,39.3545153 120.339601,39.1531681 120.064365,39.0109319 C119.789128,38.8677722 119.484337,38.7957306 119.148142,38.7957306 L117.060781,38.7957306 L117.060781,44.1462097 Z" id="Fill-25" fill="#000000"></path>
                        <path d="M123.863177,42.1974826 L124.742455,39.9438715 L125.63651,42.1974826 L123.863177,42.1974826 Z M124.322212,38.7958229 L122.166503,44.1463021 L123.099351,44.1463021 L123.557462,42.9853229 L125.942226,42.9853229 L126.408649,44.1463021 L127.356274,44.1463021 L125.14792,38.7958229 L124.322212,38.7958229 Z" id="Fill-27" fill="#000000"></path>
                        <path d="M132.194703,41.9494931 C132.158683,41.8654444 132.10696,41.7850903 132.03769,41.7084306 C131.968419,41.6317708 131.906537,41.5689653 131.850197,41.5172431 C131.79478,41.4673681 131.715349,41.4156458 131.613752,41.3639236 C131.512155,41.3140486 131.427183,41.2743333 131.361606,41.2457014 C131.295106,41.2179931 131.200898,41.1847431 131.078981,41.146875 C130.956141,41.1090069 130.862856,41.0822222 130.799127,41.0665208 C130.735398,41.0508194 130.640266,41.0286528 130.512808,40.9981736 C130.349328,40.9575347 130.226488,40.9252083 130.14244,40.9021181 C130.058391,40.8799514 129.954947,40.8448542 129.83303,40.7986736 C129.711113,40.7534167 129.618752,40.7063125 129.557794,40.6582847 C129.496835,40.6093333 129.443266,40.5465278 129.397085,40.4698681 C129.350905,40.3932083 129.327815,40.3100833 129.327815,40.2186458 C129.327815,40.0043681 129.421099,39.8371944 129.607669,39.717125 C129.793315,39.5979792 130.026065,39.5379444 130.306842,39.5379444 C130.59778,39.5379444 130.835148,39.6109097 131.020794,39.7559167 C131.207363,39.9009236 131.300648,40.1004236 131.300648,40.3553403 L132.171613,40.3553403 C132.171613,39.8519722 132.008134,39.4529722 131.682099,39.1592639 C131.356065,38.8664792 130.902572,38.7205486 130.32162,38.7205486 C129.750828,38.7205486 129.296412,38.8544722 128.957447,39.1250903 C128.618481,39.3947847 128.44946,39.7706944 128.44946,40.2482014 C128.44946,40.4070625 128.46978,40.5492986 128.510419,40.6767569 C128.551058,40.8042153 128.598162,40.9122778 128.651731,41.0018681 C128.705301,41.0905347 128.785655,41.1745833 128.892794,41.2540139 C128.999933,41.3325208 129.092294,41.3953264 129.171724,41.4405833 C129.250231,41.4867639 129.362912,41.5338681 129.507919,41.5828194 C129.653849,41.6308472 129.76653,41.6659444 129.847808,41.6899583 C129.929085,41.712125 130.049155,41.7416806 130.208016,41.7767778 C130.349328,41.8137222 130.456467,41.8395833 130.528509,41.8571319 C130.599627,41.8756042 130.692912,41.9014653 130.80744,41.9374861 C130.921967,41.9725833 131.007863,42.0104514 131.066974,42.0483194 C131.126085,42.0861875 131.187044,42.1314444 131.250773,42.1822431 C131.314502,42.2339653 131.359759,42.294 131.388391,42.3660417 C131.416099,42.4371597 131.429953,42.5156667 131.429953,42.6024861 C131.429953,42.8370833 131.328356,43.0273472 131.124238,43.1723542 C130.921044,43.3173611 130.670745,43.3903264 130.37519,43.3903264 C130.049155,43.3903264 129.780384,43.3072014 129.568877,43.141875 C129.35737,42.975625 129.252078,42.7502639 129.252078,42.4657917 L128.365412,42.4657917 C128.365412,42.8213819 128.44946,43.1335625 128.617558,43.4014097 C128.785655,43.6683333 129.021176,43.8742986 129.325044,44.0165347 C129.627988,44.1596944 129.980808,44.2308125 130.383502,44.2308125 C130.944134,44.2308125 131.406863,44.0867292 131.773537,43.7985625 C132.141134,43.5103958 132.324933,43.1067778 132.324933,42.5867847 C132.324933,42.4657917 132.311078,42.3494167 132.286141,42.2395069 C132.26028,42.1295972 132.229801,42.0335417 132.194703,41.9494931" id="Fill-29" fill="#000000"></path>
                        <path d="M49.5964389,31.3919715 C51.8241889,31.3919715 53.6686403,30.697416 55.1297931,29.3073812 C56.5909458,27.9173465 57.3224458,26.1357007 57.3224458,23.9605965 L57.3224458,12.2796868 L53.2853417,12.2796868 L53.2853417,23.7740271 C53.2853417,24.9146868 52.9426819,25.8318326 52.2564389,26.5263882 C51.5701958,27.2218674 50.6835292,27.5691451 49.5964389,27.5691451 C48.5093486,27.5691451 47.6273,27.2218674 46.9502931,26.5263882 C46.2723625,25.8318326 45.9343208,24.9146868 45.9343208,23.7740271 L45.9343208,12.2796868 L41.8713556,12.2796868 L41.8713556,23.9605965 C41.8713556,26.1357007 42.6019319,27.9173465 44.0630847,29.3073812 C45.5242375,30.697416 47.3686889,31.3919715 49.5964389,31.3919715" id="Fill-31" fill="#000000"></path>
                        <path d="M64.7539132,23.3996875 C64.7539132,22.6340139 64.8832188,21.9653194 65.1418299,21.3945278 C65.3995174,20.8246597 65.7735799,20.3877917 66.2640174,20.0848472 C66.7544549,19.7819028 67.328941,19.6304306 67.9883993,19.6304306 C69.6638299,19.6304306 70.5015451,20.7092083 70.5015451,22.8649167 L70.5015451,30.9917708 L74.4047257,30.9917708 L74.4047257,22.2507153 C74.4047257,20.4155 73.9272187,18.9488056 72.9740521,17.8524792 C72.0199618,16.7570764 70.7241354,16.2084514 69.0838021,16.2084514 C68.5850521,16.2084514 68.1084688,16.2583264 67.6540521,16.3553056 C67.1996354,16.4532083 66.7673854,16.5963681 66.3582257,16.7838611 C65.9472188,16.9704306 65.5694618,17.1930208 65.2212604,17.4525556 C64.8739826,17.7102431 64.5664201,18.0085694 64.2994965,18.3466111 L63.5236632,16.5566528 L60.8507326,16.5566528 L60.8507326,30.9917708 L64.7539132,30.9917708 L64.7539132,23.3996875 Z" id="Fill-33" fill="#000000"></path>
                        <mask id="mask-2" fill="white">
                            <use xlink:href="#path-1"></use>
                        </mask>
                        <g id="Clip-36"></g>
                        <polygon id="Fill-35" fill="#000000" mask="url(#mask-2)" points="77.9860278 30.9919556 81.8882847 30.9919556 81.8882847 16.5568375 77.9860278 16.5568375"></polygon>
                        <polygon id="Fill-37" fill="#000000" mask="url(#mask-2)" points="77.9860278 14.6320319 81.8882847 14.6320319 81.8882847 10.995775 77.9860278 10.995775"></polygon>
                        <path d="M89.7743535,20.9400188 C90.5234021,20.1909701 91.4627146,19.8178313 92.5941382,19.8178313 C93.7255618,19.8178313 94.6657979,20.1909701 95.4148465,20.9400188 C96.1629715,21.6890674 96.5379576,22.6283799 96.5379576,23.7607271 C96.5379576,24.8921507 96.1629715,25.8370049 95.4148465,26.594366 C94.6657979,27.3517271 93.7255618,27.7304076 92.5941382,27.7304076 C91.4627146,27.7304076 90.5234021,27.3554215 89.7743535,26.6072965 C89.0262285,25.8582479 88.652166,24.915241 88.652166,23.7736576 C88.652166,22.6339215 89.0262285,21.6890674 89.7743535,20.9400188 M88.3843188,30.4291993 C89.5425271,31.0886576 90.8438951,31.4193104 92.2874993,31.4193104 C94.0155757,31.4193104 95.5219854,30.8762271 96.8048813,29.7882132 L97.2592979,30.9916785 L100.146506,30.9916785 L100.146506,11.3436993 L96.2433257,11.3436993 L96.2433257,17.3314701 C95.0675688,16.5473243 93.7486521,16.1547896 92.2874993,16.1547896 C90.8438951,16.1547896 89.5425271,16.4854424 88.3843188,17.1449007 C87.2251868,17.8034354 86.3209715,18.7131924 85.6716729,19.8714007 C85.0205271,21.029609 84.695416,22.3300535 84.695416,23.7736576 C84.695416,25.2172618 85.0205271,26.5232479 85.6716729,27.6906924 C86.3209715,28.8572132 87.2251868,29.7715882 88.3843188,30.4291993" id="Fill-38" fill="#000000" mask="url(#mask-2)"></path>
                        <path d="M107.978728,20.9264417 C108.691756,20.1875528 109.614444,19.8181083 110.745867,19.8181083 C111.877291,19.8181083 112.799055,20.1875528 113.512083,20.9264417 C114.22511,21.6662542 114.581624,22.6157264 114.581624,23.7739347 C114.581624,24.9321431 114.22511,25.8816153 113.512083,26.6205042 C112.799055,27.3603167 111.881909,27.7297611 110.758798,27.7297611 C110.188006,27.7297611 109.66709,27.6327819 109.195124,27.4360528 C108.723159,27.2402472 108.31677,26.9733236 107.978728,26.6343583 C107.639763,26.2953931 107.377458,25.8760736 107.189965,25.3773236 C107.002472,24.8785736 106.909187,24.3438028 106.909187,23.7739347 C106.909187,22.6157264 107.265701,21.6662542 107.978728,20.9264417 M110.758798,31.3918792 C112.968076,31.3918792 114.817145,30.6668444 116.306006,29.2140042 C117.79302,27.7611639 118.538374,25.9481153 118.538374,23.7739347 C118.538374,21.5822056 117.797638,19.7636153 116.318937,18.3209347 C114.839312,16.8764069 112.986548,16.1550667 110.758798,16.1550667 C108.513499,16.1550667 106.651499,16.8764069 105.171874,18.3209347 C103.692249,19.7636153 102.95336,21.5822056 102.95336,23.7739347 C102.95336,25.1999903 103.286784,26.4958167 103.955478,27.6632611 C104.624173,28.8316292 105.554249,29.7441569 106.749402,30.4036153 C107.942708,31.0630736 109.279173,31.3918792 110.758798,31.3918792" id="Fill-39" fill="#000000" mask="url(#mask-2)"></path>
                        <path d="M127.627077,27.9978854 C127.323209,28.1041007 126.985167,28.1576701 126.611105,28.1576701 C126.147452,28.1576701 125.737369,28.0911701 125.380855,27.9572465 C125.024341,27.8242465 124.743563,27.6099688 124.539445,27.3162604 C124.334403,27.0216285 124.222647,26.6614201 124.205098,26.2337882 L120.409056,26.2337882 C120.409056,27.2488368 120.663049,28.1493576 121.171035,28.9335035 C121.679022,29.7167257 122.392049,30.3235382 123.310119,30.7502465 C124.227265,31.1778785 125.282952,31.3921563 126.477181,31.3921563 C128.294848,31.3921563 129.756001,30.9515938 130.861563,30.0686215 C131.966202,29.1865729 132.518522,28.0071215 132.518522,26.5265729 C132.518522,26.1885313 132.496355,25.8680382 132.452022,25.5650938 C132.406765,25.2621493 132.322716,24.9943021 132.198028,24.7633993 C132.073341,24.5315729 131.948653,24.3182188 131.823966,24.1214896 C131.699278,23.925684 131.52564,23.7465035 131.302126,23.5867188 C131.079535,23.426934 130.892966,23.2883924 130.741494,23.1720174 C130.590022,23.056566 130.366508,22.944809 130.072799,22.8385938 C129.779091,22.7314549 129.547265,22.6464826 129.378244,22.5846007 C129.208299,22.5217951 128.954306,22.4552951 128.615341,22.3841771 C128.277299,22.313059 128.036237,22.263184 127.894924,22.2373229 C127.750841,22.2096146 127.510702,22.1615868 127.17266,22.0904688 C126.780126,22.0184271 126.486417,21.9657813 126.290612,21.9297604 C126.093883,21.8937396 125.853744,21.8355521 125.568348,21.7551979 C125.282952,21.6748438 125.074216,21.5907951 124.940292,21.5021285 C124.806369,21.4125382 124.690917,21.2924688 124.593015,21.1400729 C124.494188,20.9895243 124.44616,20.8241979 124.44616,20.645941 C124.44616,20.218309 124.615181,19.8802674 124.953223,19.6299688 C125.292188,19.3815174 125.764153,19.2559063 126.370966,19.2559063 C127.81457,19.2559063 128.53591,19.8266979 128.53591,20.9673576 L132.251598,20.9673576 C132.251598,19.5228299 131.721445,18.3600035 130.66114,17.4779549 C129.600834,16.5959063 128.201563,16.1553438 126.464251,16.1553438 C124.726015,16.1553438 123.323049,16.5829757 122.253508,17.4382396 C121.183966,18.2935035 120.650119,19.3981424 120.650119,20.7530799 C120.650119,21.4125382 120.76557,21.9916424 120.997397,22.4903924 C121.229223,22.990066 121.500765,23.3816771 121.812945,23.6670729 C122.124202,23.9524688 122.543522,24.2064618 123.069056,24.4290521 C123.594591,24.6516424 124.049008,24.8077326 124.432306,24.8973229 C124.815605,24.9859896 125.300501,25.0746563 125.889765,25.1642465 C126.816147,25.3240313 127.510702,25.5115243 127.974355,25.7248785 C128.437084,25.9391563 128.669834,26.2688854 128.669834,26.714066 C128.669834,27.0170104 128.571008,27.2802396 128.375202,27.5028299 C128.179397,27.7263438 127.930022,27.8907465 127.627077,27.9978854" id="Fill-40" fill="#000000" mask="url(#mask-2)"></path>
                        <path d="M31.3636167,6.08373403 C31.3460681,5.97290069 31.3063528,5.86299097 31.2352347,5.76508819 L27.3228181,0.312088194 C27.1916653,0.130136806 26.9857,0.0211506944 26.7631097,0.00637291667 C26.7474083,0.00452569444 26.7317069,0.00083125 26.7160056,-9.23611111e-05 L26.7160056,2.03647014 L26.7631097,2.10204653 L29.2485472,5.56558819 L26.7631097,5.56558819 L26.7160056,5.56558819 L26.7160056,7.05814375 L26.7631097,7.05814375 L29.9117,7.05814375 L29.9080056,27.1873243 L31.3996375,27.1873243 L31.4024083,6.31186597 C31.4024083,6.23335903 31.3867069,6.15762292 31.3636167,6.08373403" id="Fill-41" fill="#C61B37" mask="url(#mask-2)"></path>
                        <path d="M2.4954125,24.250241 C2.51573194,24.254859 2.536975,24.2576299 2.55821806,24.2622479 C2.19985694,24.188359 1.84426667,24.0941507 1.49144722,23.9703868 L1.49144722,21.6890674 C1.80178056,21.9375187 2.13982222,22.1490257 2.4954125,22.3319007 L2.4954125,20.8245674 C2.50003056,20.8282618 2.50557222,20.8310326 2.51019028,20.8347271 C2.1130375,20.542866 1.76206528,20.1900465 1.49144722,19.7716507 L1.49144722,9.39857431 L2.4954125,9.39857431 L2.4954125,7.90694236 L0.745169444,7.90694236 C0.3341625,7.90694236 -0.000184722222,8.24036597 -0.000184722222,8.65229653 L-0.000184722222,27.1873243 L1.49144722,27.1873243 L1.49144722,25.3391785 C1.82302361,25.4407757 2.15829444,25.5192826 2.4954125,25.5820882 L2.4954125,24.250241 Z" id="Fill-42" fill="#44C7F4" mask="url(#mask-2)"></path>
                        <path d="M11.5854083,8.72923333 C11.5854083,8.31730278 11.2519847,7.98295556 10.8400542,7.98295556 L9.11751944,7.98295556 L9.11751944,9.4745875 L10.0947,9.4745875 L10.0947,12.0773236 L9.11751944,13.1200806 L9.11751944,15.3007264 L11.3314153,12.9390528 C11.3665125,12.9067264 11.3979153,12.8734764 11.4274708,12.8356083 L11.5854083,12.6675111 L11.5854083,8.72923333 Z" id="Fill-43" fill="#7EC252" mask="url(#mask-2)"></path>
                        <path d="M11.6156104,22.0269243 C10.7889785,21.9696604 9.95311042,21.9853618 9.11724236,22.0093757 L9.11724236,23.295966 C9.95311042,23.2682576 10.7880549,23.250709 11.6156104,23.3218271 L11.6156104,22.0269243 Z" id="Fill-44" fill="#7EC252" mask="url(#mask-2)"></path>
                        <path d="M11.6156104,24.8635187 C10.8074507,24.6270743 9.95957569,24.520859 9.11724236,24.4802201 L9.11724236,25.7806646 C9.76931181,25.8139146 10.4186104,25.8905743 11.0531312,26.0559007 C11.2443187,26.1057757 11.4308882,26.166734 11.6156104,26.233234 L11.6156104,24.8635187 Z" id="Fill-45" fill="#7EC252" mask="url(#mask-2)"></path>
                        <path d="M4.87795972,11.3079556 L4.87795972,8.65257361 C4.87795972,8.24064306 4.54453611,7.90629583 4.13260556,7.90629583 L2.49504306,7.90629583 L2.49504306,9.39885139 L3.38725139,9.39885139 L3.38725139,12.0533097 C3.38725139,12.4652403 3.720675,12.7986639 4.13260556,12.7986639 L5.79325833,12.7986639 L5.79325833,11.3079556 L4.87795972,11.3079556 Z" id="Fill-46" fill="#3D71B7" mask="url(#mask-2)"></path>
                        <path d="M5.79298125,21.9655042 C5.79298125,21.9664278 5.80591181,21.9673514 5.79298125,21.9655042 C5.06425208,21.8833028 4.34845347,21.7262889 3.62341875,21.4464347 C3.22441875,21.2912681 2.84204375,21.0816083 2.49568958,20.8248444 L2.49568958,22.3349486 C3.47471736,22.8438583 4.59321042,23.1246361 5.68953681,23.2548653 C5.72371042,23.2585597 5.75880764,23.2613306 5.79298125,23.265025 L5.79298125,21.9655042 Z" id="Fill-47" fill="#3D71B7" mask="url(#mask-2)"></path>
                        <path d="M5.79298125,24.4991542 L5.79298125,24.4991542 L5.80314097,24.4991542 L5.81145347,24.4991542 C4.69480764,24.5148556 3.58462708,24.4843764 2.49568958,24.2497792 L2.49568958,25.58255 C3.57816181,25.7857444 4.68372431,25.8134528 5.79298125,25.798675 L5.79298125,24.4991542 Z" id="Fill-48" fill="#3D71B7" mask="url(#mask-2)"></path>
                        <path d="M29.9079132,27.1870472 L29.9079132,30.3162417 C29.9079132,32.4008319 29.4525729,34.3782833 28.6434896,36.1636236 C28.6102396,36.1663944 28.5769896,36.1691653 28.5437396,36.1756306 C27.5545521,36.3945264 26.5007118,36.2116514 25.5697118,35.7646236 C24.8372882,35.414575 24.1833715,34.9398389 23.6042674,34.3801306 L23.6042674,36.0758806 C24.8622257,37.0142694 26.3566285,37.6164639 27.9184549,37.5545819 C27.6256701,38.0477903 27.3024063,38.5206792 26.9532813,38.9741722 C26.9126424,38.9760194 26.8720035,38.9806375 26.830441,38.98895 C25.9363854,39.1866028 25.0284757,39.0619153 24.1528924,38.7303389 C23.9672465,38.6601444 23.7843715,38.5770194 23.6042674,38.4855819 L23.6042674,39.8959361 C24.2858924,40.1674778 25.001691,40.335575 25.7322674,40.3669778 C25.2252049,40.8731167 24.6775035,41.3404639 24.0974757,41.7662486 C23.9339965,41.7893389 23.7695938,41.798575 23.6042674,41.8004222 L23.6042674,43.8693111 C28.2620382,41.1428111 31.3986215,36.0915819 31.3986215,30.3162417 L31.3995451,27.1870472 L29.9079132,27.1870472 Z" id="Fill-49" fill="#0090C7" mask="url(#mask-2)"></path>
                        <path d="M19.1528312,11.6660396 L21.9661507,14.7398174 C21.9864701,14.7629076 22.0095604,14.7795326 22.0317271,14.7989285 L22.0317271,12.6035049 L19.1528312,9.45676181 L19.1528312,11.6660396 Z" id="Fill-50" fill="#ED3C95" mask="url(#mask-2)"></path>
                        <path d="M26.7632021,8.93122708 C26.7475007,8.93122708 26.7327229,8.92845625 26.7170215,8.92845625 L26.7160979,8.92845625 L26.7160979,9.67473403 L26.7170215,9.67473403 C26.7327229,9.67473403 26.7475007,9.67842847 26.7632021,9.67935208 C27.2785771,9.70336597 27.6905076,10.1263799 27.6905076,10.6472965 L27.6905076,16.8576576 C27.6905076,17.0636229 27.8576813,17.2298729 28.0636465,17.2298729 C28.2696118,17.2298729 28.4367854,17.0636229 28.4367854,16.8576576 L28.4367854,10.6472965 C28.4367854,9.71537292 27.689584,8.95524097 26.7632021,8.93122708" id="Fill-51" fill="#C61B37" mask="url(#mask-2)"></path>
                        <path d="M26.7162826,5.56605 L24.1791229,5.56605 L26.7144354,2.03416111 L26.7162826,2.03693194 L26.7162826,0.000369444444 L26.7144354,0.000369444444 C26.4724493,0.000369444444 26.2461646,0.116744444 26.1048521,0.31255 L22.1924354,5.76555 C22.1148521,5.8736125 22.0732896,5.99645278 22.0594354,6.12021667 C22.0446576,6.17563333 22.0354215,6.23474444 22.0335743,6.29385556 L22.0335743,25.8171472 C22.0409632,26.2216889 22.3706924,26.5486472 22.7770813,26.5486472 C23.1890118,26.5486472 23.5224354,26.2143 23.5224354,25.8032931 L23.5224354,7.05768194 L26.7162826,7.05768194 L26.7162826,5.56605 Z" id="Fill-52" fill="#EE4050" mask="url(#mask-2)"></path>
                        <path d="M26.7162826,8.92854861 C25.7686576,8.92947222 24.998366,9.7006875 24.998366,10.6473889 L24.998366,15.2765278 C24.998366,15.4824931 25.1655396,15.6487431 25.3705813,15.6487431 C25.5774701,15.6487431 25.7437201,15.4824931 25.7437201,15.2765278 L25.7437201,10.6473889 C25.7437201,10.1116944 26.1796646,9.67575 26.7162826,9.67482639 L26.7162826,8.92854861 Z" id="Fill-53" fill="#EE4050" mask="url(#mask-2)"></path>
                        <path d="M9.11761181,7.983325 L7.50221597,7.983325 C7.09120903,7.983325 6.75686181,8.31674861 6.75686181,8.72960278 L6.75686181,11.308325 L5.79261181,11.308325 L5.79261181,12.7990333 L7.50221597,12.7990333 C7.91414653,12.7990333 8.24849375,12.4656097 8.24849375,12.0527556 L8.24849375,9.47403333 L9.11761181,9.47403333 L9.11761181,7.983325 Z" id="Fill-54" fill="#1A8E46" mask="url(#mask-2)"></path>
                        <path d="M9.11761181,13.1199882 L6.19253542,16.2408701 C5.91083403,16.5410437 5.92653542,17.0139326 6.22763264,17.295634 C6.37079236,17.4295576 6.55366736,17.4960576 6.73654236,17.4960576 C6.93604236,17.4960576 7.13461875,17.4166271 7.28054931,17.2605368 L9.11761181,15.300634 L9.11761181,13.1199882 Z" id="Fill-55" fill="#1A8E46" mask="url(#mask-2)"></path>
                        <path d="M9.11761181,23.295966 L9.11761181,22.0093757 C8.36763958,22.0315424 7.61766736,22.0574035 6.87877847,22.0389312 C6.50933403,22.0296951 6.14912569,22.0066049 5.79261181,21.965966 L5.79261181,23.2654868 C6.91018125,23.3864799 8.03975764,23.3310632 9.16748681,23.2950424 C9.15086181,23.2950424 9.13423681,23.295966 9.11761181,23.295966" id="Fill-56" fill="#1A8E46" mask="url(#mask-2)"></path>
                        <path d="M9.11761181,25.7808493 L9.11761181,24.4840993 C8.98184097,24.4767104 8.84514653,24.4683979 8.70937569,24.4647035 C7.73773681,24.439766 6.76332708,24.4868701 5.79261181,24.4988771 L5.79261181,25.8002451 C6.45207014,25.7919326 7.11245208,25.7688424 7.77006319,25.7605299 C8.23556319,25.7549882 8.70383403,25.7586826 9.17025764,25.7845437 C9.15270903,25.7836201 9.13516042,25.7817729 9.11761181,25.7808493" id="Fill-57" fill="#1A8E46" mask="url(#mask-2)"></path>
                        <path d="M15.3397951,6.47968611 L11.585316,10.4853875 L11.585316,12.6669569 L15.8773368,8.08676944 L15.8773368,6.24416528 C15.6732187,6.2460125 15.4792604,6.33098472 15.3397951,6.47968611" id="Fill-58" fill="#F9A51A" mask="url(#mask-2)"></path>
                        <path d="M14.7783319,26.6747201 C13.9803319,25.9487618 13.0742694,25.3742757 12.0582972,25.0057549 C11.9123667,24.9540326 11.7645889,24.9060049 11.6158875,24.8625951 L11.6158875,26.2323104 C12.2485611,26.4595187 12.8424431,26.7800118 13.3735194,27.1873243 L15.298325,27.1873243 C15.1311514,27.0109146 14.9584361,26.8391229 14.7783319,26.6747201" id="Fill-59" fill="#F9A51A" mask="url(#mask-2)"></path>
                        <path d="M14.1802938,18.6020819 L14.1802938,22.5431306 C13.3462729,22.2337208 12.4873146,22.0859431 11.6154257,22.0259083 L11.6154257,23.3208111 C12.0698424,23.3596028 12.5224118,23.4261028 12.9703632,23.5323181 C14.1054813,23.8010889 15.0577243,24.3691097 15.8769674,25.107075 L15.8769674,23.4454986 C15.633134,23.2737069 15.3819118,23.1102278 15.1168354,22.9670681 L14.9090229,22.8682417 L14.9090229,18.6020819 C14.9090229,18.0673111 15.3421965,17.6313667 15.8769674,17.6276722 L15.8769674,16.8989431 C14.9404257,16.9026375 14.1802938,17.6646167 14.1802938,18.6020819" id="Fill-60" fill="#F9A51A" mask="url(#mask-2)"></path>
                        <path d="M16.0000847,8.22050833 L19.1532931,11.6655778 L19.1532931,9.45722361 L16.4341819,6.48596667 C16.3196542,6.36035556 16.1654111,6.28461944 16.0000847,6.25875833 L16.0000847,6.2559875 C15.9723764,6.25136944 15.9446681,6.24859861 15.9169597,6.24675139 L15.9160361,6.24675139 C15.9068,6.24582778 15.8975639,6.24305694 15.8883278,6.24305694 L15.8837097,6.24305694 C15.8818625,6.24305694 15.8790917,6.24398056 15.8772444,6.24398056 L15.8772444,8.08658472 L15.8772444,8.08658472 L16.0000847,8.22050833 Z" id="Fill-61" fill="#F16522" mask="url(#mask-2)"></path>
                        <path d="M17.8089771,25.2441389 L17.5873104,25.0021528 L17.5873104,18.6024514 C17.5873104,17.6631389 16.823484,16.8983889 15.8841715,16.8983889 C15.8814007,16.8983889 15.8795535,16.8993125 15.8767826,16.8993125 L15.8767826,17.6280417 L15.8841715,17.6280417 C16.4217132,17.6280417 16.8585812,18.0649097 16.8585812,18.6024514 L16.8585812,24.2364792 C16.586116,23.9861806 16.2997965,23.7525069 16.0005465,23.5345347 L16.0005465,23.5299167 C15.9783799,23.5132917 15.9552896,23.4994375 15.9331229,23.4837361 C15.9275812,23.4800417 15.9220396,23.4745 15.9164979,23.4708056 L15.9164979,23.4717292 C15.9035674,23.4624931 15.8897132,23.4551042 15.8767826,23.4458681 L15.8767826,25.1074444 C15.9072618,25.1342292 15.9386646,25.1600903 15.9682201,25.186875 C16.5981229,25.7715208 17.1476715,26.4559167 17.633491,27.1874167 L19.1685326,27.1874167 C18.7621438,26.5113333 18.3141924,25.851875 17.8089771,25.2441389" id="Fill-62" fill="#F16522" mask="url(#mask-2)"></path>
                        <path d="M22.9569083,33.6856674 C21.4070889,31.8329035 20.5342764,29.5275701 19.3317347,27.4577576 C19.2790889,27.3663201 19.2227486,27.2776535 19.1682556,27.1871396 L17.6332139,27.1871396 C17.7736028,27.3958757 17.90845,27.6092299 18.0386792,27.8244312 C19.3335819,29.9745979 20.2451861,32.3390424 21.8097833,34.3238826 C22.3214639,34.9731812 22.9292,35.5726049 23.6043597,36.0759729 L23.6043597,34.3802229 C23.3771514,34.1613271 23.1610264,33.9295007 22.9569083,33.6856674" id="Fill-63" fill="#0D6A89" mask="url(#mask-2)"></path>
                        <path d="M18.2995993,31.7536576 C17.7426618,30.6767271 17.1506271,29.5942549 16.4459118,28.5986021 L16.4459118,28.593984 C16.2501062,28.3169007 16.0432174,28.0472062 15.8270924,27.7858243 L15.8270924,29.9821715 C16.0432174,30.318366 16.248259,30.6637965 16.4459118,31.0147687 L16.4459118,31.0156924 C17.7879188,33.3995326 18.7937313,36.0318243 20.7517868,37.9843382 C21.563641,38.7934215 22.5408215,39.4704285 23.6048215,39.894366 L23.6048215,38.485859 C22.9416688,38.1524354 22.3228493,37.6934007 21.7908493,37.1826437 C20.2253285,35.6799285 19.2813979,33.6553729 18.2995993,31.7536576" id="Fill-64" fill="#0D6A89" mask="url(#mask-2)"></path>
                        <path d="M16.4460965,35.5536708 L16.4460965,35.5518236 C16.4082285,35.4788583 16.3694368,35.4058931 16.3315688,35.3338514 C16.1643951,35.0078167 15.9972215,34.6827056 15.8272771,34.3585181 L15.8272771,37.1552125 C16.0258535,37.5218861 16.2308951,37.8830181 16.4460965,38.2376847 C17.0723049,39.2665875 17.7881035,40.2289903 18.7089438,41.0500806 C19.712909,41.9441361 20.9209924,42.6396153 22.2140479,42.9360944 C21.7393118,43.181775 21.2507215,43.4025181 20.7473535,43.5946292 C19.5069438,43.5623028 18.2896243,42.9758097 17.335534,42.1796569 C17.0141174,41.9118097 16.720409,41.6181014 16.4460965,41.3086917 L16.4460965,41.3040736 C16.2281243,41.0583931 16.0230826,40.8016292 15.8272771,40.5374764 L15.8272771,42.4641292 C16.0230826,42.6636292 16.2281243,42.8566639 16.4460965,43.0395389 C16.4516382,43.0441569 16.4562563,43.048775 16.4617979,43.0533931 C17.0464438,43.5410597 17.6948188,43.9594556 18.3838326,44.2670181 C17.7520826,44.3870875 17.1046313,44.4674417 16.4460965,44.5025389 L16.4460965,44.4988444 C16.2410549,44.5108514 16.0350896,44.5182403 15.8272771,44.5219347 L15.8272771,46.0126431 C16.0350896,46.0107958 16.2410549,46.0034069 16.4460965,45.9932472 L16.4460965,45.9960181 C18.3967632,45.9036569 20.2550688,45.4538583 21.957284,44.7103514 C21.9766799,44.7020389 22.1281521,44.6318444 22.2546868,44.5764278 C22.717416,44.36215 23.1672146,44.1247819 23.6040826,43.8689417 L23.6040826,41.8009764 C22.1891104,41.8212958 20.776909,41.1359764 19.6907424,40.1865042 C18.2526799,38.9294694 17.3152146,37.230025 16.4460965,35.5536708" id="Fill-65" fill="#0D6A89" mask="url(#mask-2)"></path>
                        <path d="M4.14193403,30.9202833 C3.27835764,31.9002347 2.57918403,32.8580194 1.95389931,33.9137069 C1.70637153,32.9716236 1.55489931,31.9907486 1.50779514,30.9821653 C2.38153125,30.9627694 3.26450347,30.9110472 4.14193403,30.9202833 M5.71299653,31.0246514 C6.00855208,31.0643667 6.30226042,31.1170125 6.59319792,31.1881306 C7.02821875,31.2952694 7.43830208,31.4495125 7.82621875,31.6416236 C7.97399653,31.7145889 8.11900347,31.7912486 8.25939236,31.8752972 C8.11161458,32.0129153 7.97030208,32.1569986 7.82621875,32.2983111 C6.13601042,33.9728181 4.77645486,35.9558111 3.84268403,38.1327625 C3.30329514,37.3172139 2.84795486,36.4434778 2.48405208,35.5226375 C3.33931597,33.8675264 4.26200347,32.5800125 5.64280208,31.1160889 C5.66958681,31.0874569 5.69267708,31.0560542 5.71299653,31.0246514 M7.45862153,28.5576861 C7.58146181,28.5706167 7.70430208,28.5909361 7.82621875,28.6094083 L7.82621875,28.6057139 C8.27047569,28.6722139 8.70826736,28.7784292 9.13128125,28.9234361 L9.13128125,27.5694222 C8.85142708,27.4872208 8.56418403,27.4197972 8.27047569,27.3689986 C8.12269792,27.3440611 7.97492014,27.3218944 7.82621875,27.3034222 C5.72223264,27.0337278 3.59977431,27.3569917 1.49117014,27.1944361 L1.49117014,27.1870472 L0.000461805556,27.1870472 L0.000461805556,30.3162417 C0.000461805556,36.1045125 3.15182292,41.1659014 7.82621875,43.8877833 L7.82621875,43.8905542 C8.24923264,44.1371583 8.68517708,44.3634431 9.13128125,44.5694083 L9.13128125,42.9078319 C8.68240625,42.6713875 8.24646181,42.4118528 7.82621875,42.1319986 C7.76803125,42.0932069 7.70799653,42.0553389 7.64980903,42.0156236 C7.70337847,41.8050403 7.76248958,41.5972278 7.82621875,41.3894153 L7.82621875,41.3931097 C8.14117014,40.3706722 8.58265625,39.3861028 9.13128125,38.4624917 L9.13128125,36.2689153 C8.64546181,36.8914292 8.20859375,37.5518111 7.82621875,38.2417486 L7.82621875,38.2435958 C7.30530208,39.1829083 6.88598264,40.1767139 6.58396181,41.2037694 C5.90141319,40.6320542 5.27243403,39.9966097 4.70810764,39.3085194 C5.42760069,37.4068042 6.48882986,35.6427069 7.82621875,34.1076653 L7.82621875,34.1039708 C8.23630208,33.6338528 8.67224653,33.1877486 9.13128125,32.7628875 L9.13128125,30.9553806 C8.72766319,30.6939986 8.29541319,30.4677139 7.82621875,30.2848389 L7.82621875,30.2866861 C7.67567014,30.2284986 7.52327431,30.1703111 7.36441319,30.1204361 C5.46639236,29.5256306 3.45476736,29.7112764 1.49117014,29.7482208 L1.49117014,28.4930333 C3.47693403,28.6426583 5.47378125,28.3452556 7.45862153,28.5576861" id="Fill-66" fill="#C9DA2A" mask="url(#mask-2)"></path>
                        <path d="M16.4460965,35.5536708 L16.4460965,35.5518236 C16.4082285,35.4788583 16.3694368,35.4058931 16.3315688,35.3338514 C16.1643951,35.0078167 15.9972215,34.6827056 15.8272771,34.3585181 L15.8272771,37.1552125 C16.0258535,37.5218861 16.2308951,37.8830181 16.4460965,38.2376847 C17.0723049,39.2665875 17.7881035,40.2289903 18.7089438,41.0500806 C19.712909,41.9441361 20.9209924,42.6396153 22.2140479,42.9360944 C21.7393118,43.181775 21.2507215,43.4025181 20.7473535,43.5946292 C19.5069438,43.5623028 18.2896243,42.9758097 17.335534,42.1796569 C17.0141174,41.9118097 16.720409,41.6181014 16.4460965,41.3086917 L16.4460965,41.3040736 C16.2281243,41.0583931 16.0230826,40.8016292 15.8272771,40.5374764 L15.8272771,42.4641292 C16.0230826,42.6636292 16.2281243,42.8566639 16.4460965,43.0395389 C16.4516382,43.0441569 16.4562563,43.048775 16.4617979,43.0533931 C17.0464438,43.5410597 17.6948188,43.9594556 18.3838326,44.2670181 C17.7520826,44.3870875 17.1046313,44.4674417 16.4460965,44.5025389 L16.4460965,44.4988444 C16.2410549,44.5108514 16.0350896,44.5182403 15.8272771,44.5219347 L15.8272771,46.0126431 C16.0350896,46.0107958 16.2410549,46.0034069 16.4460965,45.9932472 L16.4460965,45.9960181 C18.3967632,45.9036569 20.2550688,45.4538583 21.957284,44.7103514 C21.9766799,44.7020389 22.1281521,44.6318444 22.2546868,44.5764278 C22.717416,44.36215 23.1672146,44.1247819 23.6040826,43.8689417 L23.6040826,41.8009764 C22.1891104,41.8212958 20.776909,41.1359764 19.6907424,40.1865042 C18.2526799,38.9294694 17.3152146,37.230025 16.4460965,35.5536708 M18.299784,31.7539347 C17.7428465,30.6770042 17.1508118,29.5945319 16.4460965,28.5988792 L16.4460965,28.5942611 C16.250291,28.3171778 16.0434021,28.0474833 15.8272771,27.7861014 L15.8272771,29.9824486 C16.0434021,30.3186431 16.2484438,30.6640736 16.4460965,31.0150458 L16.4460965,31.0159694 C17.7881035,33.3998097 18.793916,36.0321014 20.7519715,37.9846153 C21.5638257,38.7936986 22.5410063,39.4707056 23.6040826,39.8946431 L23.6040826,38.4861361 C22.9418535,38.1517889 22.323034,37.6927542 21.791034,37.1829208 C20.2255132,35.6802056 19.2815826,33.6547264 18.299784,31.7539347 M23.6040826,34.3797611 L23.6040826,36.0755111 C22.9298465,35.5730667 22.3211868,34.9727194 21.8104299,34.3243444 C20.2458326,32.3395042 19.3333049,29.9750597 18.0384021,27.8248931 C17.9081729,27.6087681 17.7733257,27.3963375 17.6338604,27.1866778 L19.1679785,27.1866778 C19.2224715,27.2771917 19.2788118,27.3667819 19.3314576,27.4572958 C20.5339993,29.5280319 21.4077354,31.8333653 22.9566313,33.6861292 C23.1607493,33.9290389 23.3768743,34.1608653 23.6040826,34.3797611" id="Fill-67" fill="#0B6989" mask="url(#mask-2)"></path>
                        <path d="M15.8273694,29.9821715 L15.8273694,27.7858243 C15.657425,27.5807826 15.4828625,27.380359 15.2990639,27.1873243 L13.3742583,27.1873243 C13.4656958,27.2575187 13.5562097,27.3286368 13.6439528,27.4043729 C14.5223069,28.1534215 15.2196333,29.0354701 15.8273694,29.9821715" id="Fill-68" fill="#31BBAC" mask="url(#mask-2)"></path>
                        <path d="M10.9869083,43.7172847 C10.9878319,43.7135903 10.9887556,43.7108194 10.9896792,43.7080486 C11.2907764,41.911625 12.1137139,40.2001736 13.3245681,38.8249167 C13.7244917,39.5795069 14.1447347,40.3174722 14.6268597,41.0101806 C13.9276861,41.9938264 13.4751167,43.1270972 13.3079431,44.3185556 C12.5099431,44.1827847 11.7341097,43.9805139 10.9869083,43.7172847 L10.9869083,43.7172847 Z M15.8275542,44.52175 C15.7841444,44.52175 15.7416583,44.5235972 15.6991722,44.5235972 C15.3084847,44.5235972 14.9233389,44.5042014 14.5409639,44.4727986 C14.6647278,43.6092222 14.9676722,42.7798194 15.431325,42.0400069 C15.5587833,42.1850139 15.6908597,42.3263264 15.8275542,42.4648681 L15.8275542,40.5372917 C15.2170472,39.7078889 14.7090611,38.7981319 14.2315542,37.8874514 C12.9089431,35.3659931 11.5521583,32.5203472 9.13137361,30.95575 L9.13137361,32.7632569 C9.18401944,32.7152292 9.23481806,32.6662778 9.28746389,32.61825 C9.75296389,33.0227917 10.1750542,33.4845972 10.5546583,33.9851944 C10.65995,34.1228125 10.7597,34.2659722 10.85945,34.4091319 C10.2304708,34.9780764 9.65321389,35.6015139 9.13137361,36.2692847 L9.13137361,38.4628611 C9.7871375,37.3609931 10.5980681,36.3477917 11.5383042,35.4703611 C11.9567,36.1787708 12.3381514,36.9139653 12.7159083,37.6519306 C11.2372069,39.1915903 10.2166167,41.1579583 9.81299861,43.241625 C9.58209583,43.1363333 9.3548875,43.0245764 9.13137361,42.9072778 L9.13137361,44.5697778 C11.1309917,45.4961597 13.3550472,46.0152292 15.6991722,46.0152292 C15.7416583,46.0152292 15.7841444,46.0133819 15.8275542,46.0124583 L15.8275542,44.52175 Z" id="Fill-69" fill="#31BBAC" mask="url(#mask-2)"></path>
                        <path d="M9.13155833,28.9232514 C9.50100278,29.0497861 9.8602875,29.2077236 10.2011,29.4016819 C10.9778569,29.8450153 11.6363917,30.43705 12.2275028,31.1094389 C13.7828639,32.880925 14.706475,35.0892792 15.8277389,37.1553972 L15.8277389,34.3587028 C15.0786903,32.9261819 14.2890028,31.5195222 13.2286972,30.2855778 C12.1240583,28.9999111 10.7386417,28.0356611 9.13155833,27.5692375 L9.13155833,28.9232514 Z" id="Fill-70" fill="#31BBAC" mask="url(#mask-2)"></path>
                    </g>
                </g>
            </g>
        </g>
    </g>
</svg>