<?xml version="1.0" encoding="UTF-8"?>
<svg width="356px" height="492px" viewBox="0 0 356 492" version="1.1" xmlns="http://www.w3.org/2000/svg" xmlns:xlink="http://www.w3.org/1999/xlink">
    <!-- Generator: Sketch 63.1 (92452) - https://sketch.com -->
    <title>logo-marca</title>
    <desc>Created with Sketch.</desc>
    <defs>
        <polygon id="path-1999" points="0 0.10056641 355.640704 0.10056641 355.640704 491.896799 0 491.896799"></polygon>
    </defs>
    <g id="Unidos-2021-Landing-Page" stroke="none" stroke-width="1" fill="none" fill-rule="evenodd">
        <g id="Politica-de-Cookies-HD-" transform="translate(-1.000000, -3435.000000)">
            <g id="logo-marca" transform="translate(1.000000, 3435.000000)">
                <g id="Group-3">
                    <mask id="mask-2" fill="white">
                        <use xlink:href="#path-1"></use>
                    </mask>
                    <g id="Clip-2"></g>
                    <path d="M338.712574,281.68849 L338.711475,281.68849 L338.705981,324.108709 C338.705981,346.381657 333.556068,367.527478 324.387969,386.602578 C324.012191,386.631612 323.635315,386.661682 323.260636,386.741525 C312.059821,389.071474 300.12613,387.114814 289.577981,382.343965 C281.289994,378.595515 273.883216,373.51774 267.325784,367.541995 L267.325784,367.545105 C264.74808,365.202713 262.296735,362.725521 259.989327,360.121826 C242.442043,340.323996 232.555352,315.676511 218.931759,293.554953 C218.334031,292.5844 217.628623,291.519487 217.014414,290.555156 L217.012216,290.555156 C212.425969,283.370367 207.380438,276.360817 201.691031,269.90187 L201.691031,209.096099 C201.691031,183.479098 188.076228,180.713644 182.223105,180.713644 C181.558352,180.713644 180.90129,180.745789 180.254117,180.808004 L180.254117,180.853628 C180.102488,180.868145 179.957451,180.898215 179.808019,180.915843 C170.215796,182.046081 162.75408,189.730663 162.75408,199.083642 L162.75408,241.789013 C152.635549,237.937908 142.16871,236.203148 131.548043,235.502193 L131.548043,235.513599 C122.190957,234.896634 112.717401,235.073947 103.25813,235.330065 L103.25813,235.33525 C94.7613765,235.563371 86.2745123,235.842302 77.900821,235.645288 C73.7277099,235.545744 69.6556852,235.292736 65.6287099,234.866564 C65.6199198,234.865527 65.6199198,234.865527 65.6056358,234.86449 C57.3506111,233.987259 49.2450185,232.307456 41.0416358,229.304548 C36.5784506,227.671406 32.3086481,225.466924 28.421216,222.770943 C23.9250679,219.658122 19.9530309,215.87338 16.8874753,211.417754 L16.8874753,100.545548 L28.2596975,100.545548 L38.3562531,100.545548 L38.3562531,128.920745 C38.3562531,133.322452 42.1371049,136.890478 46.8002654,136.890478 L65.6056358,136.890478 L84.9669815,136.890478 C89.6312407,136.890478 93.4120926,133.322452 93.4120926,128.920745 L93.4120926,101.359527 L103.25813,101.359527 L114.319401,101.359527 L114.319401,129.179974 L103.25813,140.319558 L70.1336481,173.679209 C66.9461296,176.890536 67.1186358,181.935131 70.5226111,184.943223 C72.1509815,186.384536 74.2243519,187.097934 76.2944259,187.097934 C78.5468951,187.097934 80.7949691,186.249737 82.4574012,184.577192 L103.25813,163.629422 L128.325364,138.383637 C128.725315,138.050787 129.086809,137.685793 129.414241,137.287617 L131.198636,135.486495 L179.808019,86.5357808 L179.813512,86.5295593 L181.201253,87.9605029 L216.907833,124.779304 L249.530179,158.296565 L249.530179,276.02382 C249.61808,280.352943 253.349488,283.843201 257.95771,283.843201 C262.621969,283.843201 266.401722,280.274137 266.401722,275.873467 L266.401722,75.5299581 L302.563191,75.5299581 L303.097191,75.5299581 L338.751031,75.5299581 L338.712574,281.68849 Z M180.444204,251.085998 C180.379377,251.042448 180.318944,250.991639 180.254117,250.947052 L180.254117,250.962606 C180.107981,250.864099 179.954154,250.775961 179.808019,250.678491 C177.043525,248.837965 174.203216,247.091799 171.199191,245.560275 L171.199191,199.083642 C171.199191,194.140665 174.899833,190.071808 179.808019,189.027634 C180.266204,188.930164 180.721093,188.821288 181.199056,188.778774 C181.539673,188.743519 181.8715,188.681304 182.223105,188.681304 C191.334068,188.681304 193.24592,199.782523 193.24592,209.096099 L193.24592,261.212517 C189.49913,257.719148 185.456772,254.547223 181.201253,251.636601 L181.201253,251.575423 C180.954031,251.406405 180.693623,251.253979 180.444204,251.085998 L180.444204,251.085998 Z M305.252969,416.63684 C304.791488,416.658615 304.327809,416.711498 303.865228,416.806894 C293.734611,418.917017 283.453463,417.583544 273.531611,414.037292 C271.428574,413.286565 269.362895,412.396892 267.325784,411.428412 L267.325784,411.427376 C259.820117,407.859349 252.815488,402.951627 246.78766,397.492266 C229.055784,381.43148 218.37029,359.79105 207.247488,339.475799 C200.942772,327.960851 194.237006,316.394057 186.255574,305.749081 L186.255574,305.702419 C182.283537,300.416223 177.898364,295.251347 173.164883,290.555156 L173.146204,290.555156 C171.284895,288.712557 169.369747,286.912471 167.3645,285.189117 C158.331549,277.42573 148.063586,271.291337 136.560611,267.359353 C134.906969,266.794234 133.233549,266.290293 131.548043,265.825754 L131.548043,265.833013 C122.389833,263.305012 112.78992,262.166479 103.25813,261.730974 L103.25813,261.771414 C101.714364,261.696756 100.167302,261.605508 98.6301296,261.569216 C87.6358827,261.301691 76.5921914,261.800448 65.6056358,261.942505 C65.6429938,261.942505 65.6803519,261.941468 65.7177099,261.940431 C65.7495741,261.940431 65.7803395,261.939395 65.8111049,261.939395 C53.1643148,262.106338 40.5922407,261.786968 28.2596975,259.274521 C28.4959321,259.323256 28.7343642,259.357475 28.9716975,259.404136 C24.9161543,258.615043 20.884784,257.612346 16.8874753,256.285094 L16.8874753,231.903059 C20.3991296,234.562748 24.2360185,236.812855 28.2596975,238.775736 L28.2596975,238.814102 C39.3462407,244.250651 52.0128086,247.250447 64.4387469,248.640951 C64.8266111,248.684502 65.2166728,248.714572 65.6056358,248.748791 C78.2546235,250.044935 91.0486481,249.459078 103.819599,249.066087 C103.632809,249.071271 103.44492,249.075419 103.25813,249.081641 C112.722895,248.785083 122.175574,248.599475 131.548043,249.360571 L131.548043,249.345017 C136.692463,249.761857 141.81271,250.467997 146.896698,251.605493 C159.747858,254.478786 170.534438,260.554075 179.808019,268.437745 C180.148636,268.727044 180.504636,269.001827 180.840858,269.296311 C187.959759,275.525063 194.164488,282.823913 199.661611,290.609075 C201.229549,292.833259 202.827154,295.195353 204.286315,297.479678 C218.95813,320.462914 229.28213,345.7284 247.004117,366.947842 C252.793512,373.879623 259.676179,380.285688 267.325784,385.665206 L267.325784,385.663132 C281.571278,395.693218 298.495562,402.131427 316.183488,401.465727 C312.86192,406.738443 309.206327,411.799628 305.252969,416.63684 L305.252969,416.63684 Z M272.911907,446.488604 C271.052796,446.726058 269.18929,446.828713 267.325784,446.854635 C251.2915,447.073425 235.307759,439.743468 223.003784,429.598285 C206.712389,416.162969 196.10271,398.004502 186.255574,380.084526 L186.255574,380.062751 C185.827056,379.286101 185.388648,378.508415 184.963426,377.732802 C174.661401,358.908635 164.545068,339.950706 149.815019,323.773785 C135.124525,307.642489 116.054352,296.217752 93.6615123,292.611359 C91.9880926,292.341761 90.3135741,292.111566 88.6379568,291.909367 C64.8079321,289.026742 40.7702407,292.480708 16.8874753,290.745948 L16.8874753,290.665069 L16.8874753,270.911826 C20.6485494,271.997476 24.4425864,272.836341 28.2596975,273.51241 L28.2596975,273.514484 C40.525216,275.687859 53.0423519,275.981306 65.6056358,275.833027 L65.6056358,275.840286 C73.0673519,275.750074 80.5444506,275.508473 87.9929815,275.418261 C93.2747469,275.353972 98.5751914,275.397523 103.85366,275.672305 C103.654784,275.661936 103.457006,275.643272 103.25813,275.633939 C110.64513,275.989602 117.991475,276.812913 125.177401,278.576706 C127.339772,279.107607 129.455994,279.762938 131.548043,280.475299 L131.548043,280.460782 C138.69771,282.88198 145.411167,286.306912 151.421414,290.634998 C152.432278,291.366024 153.557414,292.210073 154.518833,292.983612 C168.014969,303.84323 177.732451,317.293062 186.255574,331.579686 L186.255574,331.587982 C201.452599,357.064999 212.844599,385.198594 235.018784,406.061337 C244.211056,414.709214 255.281117,421.946885 267.325784,426.479243 L267.325784,426.489612 C275.03692,429.394013 283.14471,431.198246 291.426105,431.51969 C285.672969,436.939648 279.473735,441.933434 272.911907,446.488604 L272.911907,446.488604 Z M234.962747,466.020984 C220.922722,465.675691 207.126623,459.410647 196.326858,450.90068 C192.688846,448.034645 189.367278,444.902123 186.255574,441.599547 L186.255574,441.539406 C176.039253,430.69949 168.306142,417.866622 161.174056,405.033754 C143.691599,373.578918 125.711401,337.403004 88.6379568,323.771711 L88.6379568,323.800745 C86.9260802,323.16719 85.2021173,322.548151 83.404537,322.016213 C61.9093889,315.65992 39.1264877,317.645614 16.8874753,318.038605 L16.8874753,304.629212 C39.3715123,306.227099 61.9906975,303.038583 84.4670432,305.316687 C85.8613765,305.45667 87.250216,305.66198 88.6379568,305.863141 L88.6379568,305.826849 C98.0400926,307.17484 107.25434,309.876005 115.523648,314.335779 C124.318167,319.076557 131.783179,325.394484 138.480154,332.591716 C159.210562,354.872959 170.036698,383.627667 186.255574,408.770798 L186.255574,408.774945 C193.341512,419.762103 201.453698,430.062824 211.879883,438.825798 C223.249907,448.383049 236.932833,455.81255 251.57608,458.985512 C246.204216,461.613056 240.664241,463.968928 234.962747,466.020984 L234.962747,466.020984 Z M186.255574,475.728589 L186.255574,475.688149 C183.452623,475.841612 180.639784,475.957747 177.796179,475.957747 C173.373648,475.957747 169.006056,475.742068 164.673623,475.410255 C166.078944,466.174448 169.50929,457.322299 174.762488,449.409596 C178.27634,453.19019 182.070377,456.777918 186.255574,460.092938 L186.255574,460.092938 C186.314907,460.140636 186.372043,460.190408 186.432475,460.239143 C193.053636,465.455865 200.393389,469.919787 208.200117,473.202662 C201.038364,474.499844 193.712895,475.352188 186.255574,475.728589 L186.255574,475.728589 Z M124.430241,467.33683 C124.436833,467.301575 124.452216,467.269431 124.45771,467.234176 C127.872673,448.038793 137.190204,429.749675 150.901698,415.046211 C155.431907,423.106156 160.19066,431.003306 165.657019,438.403773 C157.72613,448.91395 152.612475,461.03342 150.716006,473.763633 C141.676463,472.311952 132.892932,470.153093 124.430241,467.33683 L124.430241,467.33683 Z M88.6379568,450.387407 L88.6379568,450.390518 C87.9710062,449.973678 87.2930679,449.571354 86.6349074,449.143108 C87.2392284,446.898186 87.9138704,444.670891 88.6379568,442.456039 L88.6379568,442.491294 C96.450179,418.544765 111.085735,396.444981 130.676722,379.194853 C135.414599,386.764337 139.730549,394.625194 144.009142,402.507827 C127.267253,418.957457 115.697253,439.989217 111.13408,462.258017 C103.272414,458.866266 95.7634506,454.879326 88.6379568,450.387407 L88.6379568,450.387407 Z M53.3192407,420.212125 C61.4698827,399.889615 73.4892778,381.042636 88.6379568,364.632409 L88.6379568,364.59508 C93.7966605,359.007142 99.316858,353.699171 105.178772,348.718865 C110.452846,353.031397 115.229179,357.9723 119.533043,363.3176 C120.726302,364.799353 121.858031,366.323619 122.986463,367.849959 C109.210142,379.604434 97.5950926,393.541618 88.6379568,408.80709 L88.6379568,408.828865 C82.7386852,418.877614 77.9799321,429.495631 74.5605741,440.469309 C66.8329568,434.35358 59.7140556,427.575263 53.3192407,420.212125 L53.3192407,420.212125 Z M43.5149568,407.641597 C37.4113148,398.931505 32.2493148,389.592006 28.1278457,379.755824 C37.8233519,362.072265 48.2726111,348.305136 63.9080432,332.657042 C64.2135,332.352188 64.4728086,332.022449 64.7046481,331.681304 C68.0481914,332.10955 71.3730556,332.667411 74.6693519,333.431618 C79.596216,334.573262 84.2417963,336.225068 88.6379568,338.276087 L88.6379568,338.275051 C90.3080802,339.053774 91.9496358,339.879159 93.546142,340.77298 C91.8661296,342.24229 90.2630309,343.780036 88.6379568,345.29808 C69.4952654,363.182801 54.0938704,384.383579 43.5149568,407.641597 L43.5149568,407.641597 Z M17.0786605,331.231283 C26.9686481,331.022863 36.9685123,330.466039 46.9057469,330.561435 C37.1300309,341.034283 29.203537,351.267604 22.1274877,362.560652 C19.3300309,352.483906 17.6082654,342.002762 17.0786605,331.231283 L17.0786605,331.231283 Z M302.539019,21.8343183 L302.563191,21.8664627 L303.097191,22.5684546 L331.24866,59.5904908 L303.097191,59.5904908 L302.563191,59.5904908 L273.830475,59.5904908 L302.539019,21.8343183 Z M355.196253,65.1255466 C354.996278,63.9330936 354.541389,62.7613789 353.744784,61.7140941 L309.430475,3.43839787 C307.948241,1.48899646 305.614463,0.322466359 303.097191,0.163818265 C302.916994,0.151375277 302.744488,0.106787904 302.563191,0.10056641 C302.554401,0.10056641 302.54671,0.10056641 302.539019,0.10056641 C299.80529,0.10056641 297.239673,1.34279135 295.647562,3.43839787 L251.335451,61.7140941 C250.452043,62.8744027 249.983969,64.1840272 249.831241,65.5112792 C249.662031,66.1085426 249.551056,66.7265443 249.530179,67.3704689 L249.530179,134.420545 L216.907833,101.170808 L186.11713,69.4204512 C184.819488,68.0838669 183.075747,67.2657405 181.201253,66.9899209 L181.201253,66.9619242 C180.890302,66.915263 180.574957,66.8872662 180.259611,66.8644541 C180.257414,66.8644541 180.256315,66.8634172 180.254117,66.8634172 C180.147537,66.8561588 180.044253,66.8312728 179.937673,66.8312728 L179.88713,66.8312728 C179.860759,66.8312728 179.834389,66.8385312 179.808019,66.8385312 C177.502809,66.8592695 175.304179,67.7603492 173.725253,69.3520147 L131.203031,112.163151 L131.206327,93.3908301 C131.206327,88.9891232 127.426574,85.4210965 122.762315,85.4210965 L103.25813,85.4210965 L84.9669815,85.4210965 C80.303821,85.4210965 76.5229691,88.9891232 76.5229691,93.3908301 L76.5229691,120.951011 L65.6056358,120.951011 L55.243179,120.951011 L55.243179,92.5758144 C55.243179,88.1751444 51.4634259,84.6060808 46.8002654,84.6060808 L28.2596975,84.6060808 L8.44346296,84.6060808 C3.78030247,84.6060808 -0.000549382716,88.1751444 -0.000549382716,92.5758144 L-0.000549382716,290.665069 L-0.000549382716,292.49004 L-0.000549382716,324.108709 C-0.000549382716,385.972133 35.6950432,440.068023 88.6379568,469.158691 L88.6379568,469.18254 C114.869883,483.595668 145.316673,491.897214 177.796179,491.897214 C180.636488,491.897214 183.450426,491.791449 186.255574,491.653539 L186.255574,491.68672 C208.342957,490.700614 229.384315,485.892436 248.664352,477.952773 C248.892895,477.860487 250.600377,477.110797 252.02987,476.514571 C257.275377,474.230245 262.372549,471.694987 267.325784,468.952345 L267.325784,468.958566 C320.067623,439.822274 355.592907,385.830076 355.592907,324.110783 L355.598401,287.207992 L355.5995,287.207992 L355.641253,67.5622983 C355.641253,66.7234336 355.464352,65.9094548 355.196253,65.1255466 L355.196253,65.1255466 Z" id="Fill-1" fill="#F4F7F6" mask="url(#mask-2)"></path>
                </g>
                <path d="M302.999436,91 C302.994921,91 302.990406,91 302.984762,91 C291.963513,91.0088822 283,99.8278365 283,110.669721 L283,163.642291 C283,165.998305 284.941474,167.907987 287.337839,167.907987 C289.733076,167.907987 291.675678,165.998305 291.675678,163.642291 L291.675678,110.669721 C291.675678,104.533203 296.747213,99.5402739 302.984762,99.5336123 C302.990406,99.5336123 302.994921,99.5313917 302.999436,99.5313917 C303.182295,99.5313917 303.352739,99.5758029 303.533341,99.5835749 C309.525947,99.865586 314.324322,104.708627 314.324322,110.669721 L314.324322,181.734304 C314.324322,184.090318 316.265796,186 318.661032,186 C321.057398,186 323,184.090318 323,181.734304 L323,110.669721 C323,99.9999299 314.313034,91.3086578 303.533341,91.0266467 C303.353867,91.0222056 303.180038,91 302.999436,91" id="Fill-4" fill="#F4F7F6"></path>
            </g>
        </g>
    </g>
</svg>
