<?xml version="1.0" encoding="UTF-8"?>
<svg width="21px" height="11px" viewBox="0 0 21 11" version="1.1" xmlns="http://www.w3.org/2000/svg" xmlns:xlink="http://www.w3.org/1999/xlink">
    <!-- Generator: Sketch 63.1 (92452) - https://sketch.com -->
    <title>menu (1)</title>
    <desc>Created with Sketch.</desc>
    <g id="Unidos-2021-Landing-Page" stroke="none" stroke-width="1" fill="none" fill-rule="evenodd">
        <g id="Candidato---Detalhe-HD" transform="translate(-1329.000000, -35.000000)" fill="#231F20" fill-rule="nonzero">
            <g id="barra-topo" transform="translate(1.000000, 0.000000)">
                <g id="MENU" transform="translate(1300.000000, 0.000000)">
                    <g id="Stacked-Group-2" transform="translate(28.000000, 33.000000)">
                        <g id="menu-(1)" transform="translate(0.000000, 2.000000)">
                            <path d="M0.656234658,1.3125 L20.3437653,1.3125 C20.7060309,1.3125 21,1.01846945 21,0.65625 C21,0.293975998 20.7059763,0 20.3437653,0 L0.656234658,0 C0.293969125,0 0,0.294030549 0,0.65625 C0,1.01846945 0.294023675,1.3125 0.656234658,1.3125 Z" id="Path"></path>
                            <path d="M20.3437653,4.59375 L0.656234658,4.59375 C0.293969125,4.59375 0,4.88778055 0,5.25 C0,5.61221945 0.294023675,5.90625 0.656234658,5.90625 L20.3437653,5.90625 C20.7060309,5.90625 21,5.61221945 21,5.25 C21,4.88778055 20.7060309,4.59375 20.3437653,4.59375 Z" id="Path"></path>
                            <path d="M20.3437649,9.1875 L7.21873512,9.1875 C6.85646933,9.1875 6.5625,9.48153055 6.5625,9.84375 C6.5625,10.206024 6.85652388,10.5 7.21873512,10.5 L20.3437649,10.5 C20.7060307,10.5 21,10.2059695 21,9.84375 C21,9.481476 20.7060307,9.1875 20.3437649,9.1875 Z" id="Path"></path>
                        </g>
                    </g>
                </g>
            </g>
        </g>
    </g>
</svg>