<?xml version="1.0" encoding="UTF-8"?>
<svg width="12px" height="12px" viewBox="0 0 12 12" version="1.1" xmlns="http://www.w3.org/2000/svg" xmlns:xlink="http://www.w3.org/1999/xlink">
    <!-- Generator: Sketch 63.1 (92452) - https://sketch.com -->
    <title>Fill 10</title>
    <desc>Created with Sketch.</desc>
    <g id="Unidos-2021-Landing-Page" stroke="none" stroke-width="1" fill="none" fill-rule="evenodd">
        <g id="Home-HD" transform="translate(-1350.000000, -45.000000)" fill="#231F20">
            <g id="Stacked-Group" transform="translate(1214.000000, 43.000000)">
                <path d="M147.989409,13.7571279 C147.956672,7.26704682 142.673514,2 136.184867,2 C136.082805,2 136,2.08288491 136,2.18600916 L136,4.51064172 C136,4.61376596 136.082805,4.69665087 136.184867,4.69665087 C141.208056,4.69665087 145.294391,8.78788852 145.294391,13.8159184 C145.294391,13.9171151 145.377197,14 145.478296,14 L147.802616,14 L147.812244,14 C147.913343,14 148,13.9171151 148,13.8159184 L147.989409,13.7571279 Z M136.184867,5.91968517 C136.082805,5.91968517 136,6.00353385 136,6.10569432 L136,8.36575375 C136,8.46791422 136.082805,8.55079913 136.184867,8.55079913 C139.084009,8.55079913 141.444917,10.9120553 141.444917,13.8159184 C141.444917,13.9161513 141.526759,14 141.629784,14 L143.88863,14 L143.896333,14 C143.999358,14 144.082163,13.9161513 144.082163,13.8159184 L144.073498,13.7571279 C144.040761,9.43169223 140.512878,5.91968517 136.184867,5.91968517 L136.184867,5.91968517 Z M139.557731,12.2208658 C139.557731,13.2019918 138.759528,14 137.779347,14 C136.79724,14 136,13.201028 136,12.2208658 C136,11.238776 136.79724,10.4407678 137.779347,10.4407678 C138.759528,10.4407678 139.557731,11.238776 139.557731,12.2208658 L139.557731,12.2208658 Z" id="Fill-10"></path>
            </g>
        </g>
    </g>
</svg>