<?xml version="1.0" encoding="UTF-8"?>
<svg width="391px" height="564px" viewBox="0 0 391 564" version="1.1" xmlns="http://www.w3.org/2000/svg" xmlns:xlink="http://www.w3.org/1999/xlink">
    <!-- Generator: Sketch 63.1 (92452) - https://sketch.com -->
    <title>logo-marca</title>
    <desc>Created with Sketch.</desc>
    <g id="Unidos-2021-Landing-Page" stroke="none" stroke-width="1" fill="none" fill-rule="evenodd">
        <g id="Home-HD" transform="translate(-1.000000, -1331.000000)" fill="#18AD97">
            <g id="Logo-solido-verde" transform="translate(0.000000, 1289.000000)">
                <g id="logo-marca" transform="translate(1.000000, 42.000000)">
                    <g id="Group-3">
                        <path d="M372.012968,322.911196 L372.011761,322.911196 L372.005727,371.539252 C372.005727,397.071656 366.349502,421.311987 356.280045,443.178565 C355.867323,443.211848 355.453394,443.246319 355.041878,443.337845 C342.73986,446.008763 329.632912,443.765763 318.047727,438.296741 C308.944909,433.999737 300.809937,428.178872 293.607813,421.328628 L293.607813,421.332194 C290.776684,418.647012 288.084335,415.807305 285.550076,412.822581 C266.277637,390.127507 255.41894,361.873074 240.455949,336.514214 C239.799455,335.401629 239.024696,334.180876 238.3501,333.075422 L238.347687,333.075422 C233.310545,324.839201 227.768965,316.803864 221.520205,309.399704 L221.520205,239.695529 C221.520205,210.329698 206.566869,207.159544 200.138298,207.159544 C199.40819,207.159544 198.686529,207.196392 197.97573,207.267712 L197.97573,207.320013 C197.809193,207.336654 197.649897,207.371125 197.485773,207.391332 C186.950495,208.686971 178.755184,217.496126 178.755184,228.217833 L178.755184,277.172771 C167.641853,272.75809 156.145971,270.769463 144.481137,269.965929 L144.481137,269.979004 C134.204113,269.271752 123.799168,269.475012 113.409912,269.768611 L113.409912,269.774555 C104.077804,270.03606 94.7565571,270.355809 85.5596096,270.129964 C80.9762207,270.015853 76.5038565,269.72582 72.0809707,269.237281 C72.0713164,269.236092 72.0713164,269.236092 72.0556281,269.234903 C62.9890139,268.229297 54.0865231,266.303669 45.0766281,262.861312 C40.1746466,260.989173 35.4850602,258.462083 31.2154367,255.371569 C26.2772515,251.803213 21.9147052,247.464606 18.5477608,242.356937 L18.5477608,115.259531 L31.0380386,115.259531 L42.127233,115.259531 L42.127233,147.787195 C42.127233,152.833054 46.2797978,156.923231 51.4014151,156.923231 L72.0556281,156.923231 L93.3204769,156.923231 C98.4433009,156.923231 102.595866,152.833054 102.595866,147.787195 L102.595866,116.192628 L113.409912,116.192628 L125.558668,116.192628 L125.558668,148.08436 L113.409912,160.854128 L77.0288102,199.095678 C73.527912,202.776956 73.7173781,208.559784 77.4560139,212.008085 C79.2444769,213.660322 81.5216898,214.478119 83.7952824,214.478119 C86.2692022,214.478119 88.7382948,213.505796 90.5641682,211.588488 L113.409912,187.575191 L140.941622,158.634901 C141.380894,158.253341 141.777927,157.834933 142.137551,157.378488 L144.097378,155.313787 L197.485773,99.1995536 L197.491807,99.1924217 L199.015983,100.832772 L238.233042,143.03969 L274.06264,181.461916 L274.06264,316.417549 C274.159184,321.380202 278.257443,325.38123 283.318721,325.38123 C288.441545,325.38123 292.592903,321.289864 292.592903,316.245194 L292.592903,86.5831228 L332.309573,86.5831228 L332.896073,86.5831228 L372.055205,86.5831228 L372.012968,322.911196 Z M198.184505,287.830291 C198.113304,287.780367 198.046931,287.722123 197.97573,287.671011 L197.97573,287.68884 C197.815227,287.575918 197.646276,287.474882 197.485773,287.363148 C194.449489,285.253277 191.329937,283.251575 188.030573,281.495925 L188.030573,228.217833 C188.030573,222.551494 192.095042,217.887195 197.485773,216.690215 C197.989005,216.578481 198.488616,216.453671 199.013569,216.404936 C199.387674,216.364522 199.752125,216.293202 200.138298,216.293202 C210.145002,216.293202 212.244816,229.01899 212.244816,239.695529 L212.244816,299.438739 C208.129662,295.434145 203.689881,291.798036 199.015983,288.461469 L199.015983,288.391338 C198.744455,288.197587 198.458446,288.022854 198.184505,287.830291 L198.184505,287.830291 Z M335.263795,477.608085 C334.756943,477.633046 334.247677,477.693668 333.739619,477.803025 C322.613014,480.221947 311.321079,478.693331 300.423764,474.628115 C298.113968,473.767526 295.845202,472.747656 293.607813,471.637448 L293.607813,471.63626 C285.36423,467.546083 277.670943,461.920158 271.050492,455.661866 C251.575313,437.250721 239.839279,412.443399 227.622943,389.155184 C220.698381,375.955121 213.333341,362.695626 204.567218,350.492848 L204.567218,350.439359 C200.204671,344.379573 195.388372,338.458861 190.18952,333.075422 L190.169005,333.075422 C188.124702,330.963175 186.021267,328.899662 183.818875,326.92411 C173.897853,318.024617 162.6204,310.992508 149.986514,306.485112 C148.170295,305.837292 146.332353,305.259604 144.481137,304.727084 L144.481137,304.735405 C134.422542,301.837453 123.878816,300.532305 113.409912,300.033068 L113.409912,300.079426 C111.714372,299.993843 110.015211,299.889241 108.326912,299.847637 C96.2517701,299.540963 84.1223225,300.112709 72.0556281,300.275555 C72.096659,300.275555 72.1376898,300.274366 72.1787207,300.273178 C72.2137176,300.273178 72.2475077,300.271989 72.2812978,300.271989 C58.3911435,300.463363 44.5830509,300.097256 31.0380386,297.217134 C31.2974985,297.273001 31.5593719,297.312227 31.8200386,297.365717 C27.3657762,296.461147 22.9380633,295.311713 18.5477608,293.790229 L18.5477608,265.840092 C22.404662,268.889003 26.6187731,271.468394 31.0380386,273.718527 L31.0380386,273.762507 C43.2145509,279.994648 57.1264275,283.43344 70.774017,285.027432 C71.2000139,285.077356 71.6284244,285.111827 72.0556281,285.151053 C85.948196,286.636877 100.00006,285.965284 114.026582,285.514782 C113.821427,285.520726 113.615066,285.52548 113.409912,285.532612 C123.805202,285.192656 134.187218,284.979886 144.481137,285.852362 L144.481137,285.834532 C150.131329,286.312373 155.754971,287.12185 161.338789,288.425809 C175.453406,291.719584 187.300465,298.68394 197.485773,307.721317 C197.859878,308.052953 198.250878,308.367948 198.620156,308.705527 C206.438949,315.845804 213.253693,324.212778 219.291264,333.137233 C221.013353,335.686907 222.768026,338.394673 224.370644,341.01329 C240.484912,367.359925 251.823912,396.3228 271.28823,420.647526 C277.646807,428.593714 285.20614,435.937252 293.607813,442.104017 L293.607813,442.10164 C309.253847,453.599542 327.842035,460.979928 347.268943,460.216809 C343.620816,466.261142 339.605826,472.062988 335.263795,477.608085 L335.263795,477.608085 Z M299.743134,511.8284 C297.701245,512.100603 295.654529,512.21828 293.607813,512.247997 C275.997125,512.498804 258.441949,504.096171 244.928313,492.466327 C227.035236,477.064867 215.382471,456.249064 204.567218,435.706652 L204.567218,435.68169 C204.096569,434.791384 203.61506,433.89989 203.148032,433.010773 C191.833168,411.43185 180.722252,389.69959 164.544023,371.155315 C148.409239,352.663341 127.46419,339.566691 102.869807,335.432534 C101.031866,335.123482 99.1927176,334.8596 97.3523627,334.627811 C71.1794985,331.323338 44.7785509,335.282763 18.5477608,333.294136 L18.5477608,333.20142 L18.5477608,310.557459 C22.6786034,311.801985 26.8456497,312.76361 31.0380386,313.538616 L31.0380386,313.540994 C44.5094367,316.032424 58.2571898,316.368814 72.0556281,316.198836 L72.0556281,316.207157 C80.2509398,316.103743 88.4631466,315.826786 96.6439769,315.723372 C102.445017,315.649676 108.266573,315.699599 114.063992,316.014594 C113.845563,316.002707 113.628341,315.981311 113.409912,315.970614 C121.523162,316.378324 129.591761,317.322119 137.484168,319.344029 C139.859131,319.952623 142.183409,320.703855 144.481137,321.520464 L144.481137,321.503823 C152.333721,324.279343 159.707208,328.205485 166.30835,333.166949 C167.418597,334.004954 168.65435,334.972523 169.710292,335.859263 C184.533295,348.308092 195.206147,363.726194 204.567218,380.103543 L204.567218,380.113052 C221.258332,409.318413 233.770332,441.56912 258.124563,465.484947 C268.220569,475.398367 280.37898,483.695209 293.607813,488.89084 L293.607813,488.902726 C302.077066,492.232161 310.981971,494.300429 320.077548,494.668913 C313.758795,500.882036 306.950085,506.606619 299.743134,511.8284 L299.743134,511.8284 Z M258.063017,534.219177 C242.642653,533.823354 227.490196,526.641473 215.628656,516.886146 C211.632974,513.600691 207.984847,510.009751 204.567218,506.223871 L204.567218,506.154929 C193.346483,493.728683 184.853094,479.017835 177.019819,464.306986 C157.818582,428.249003 138.070668,386.779054 97.3523627,371.152937 L97.3523627,371.18622 C95.4721836,370.459949 93.5787299,369.750319 91.6044213,369.140537 C67.9959861,361.854055 42.9731929,364.130338 18.5477608,364.58084 L18.5477608,349.209096 C43.2423071,351.04082 68.0852886,347.385693 92.7713873,349.997177 C94.302804,350.157647 95.8281867,350.393001 97.3523627,350.623601 L97.3523627,350.581998 C107.678866,352.127255 117.799008,355.223713 126.88131,360.336137 C136.540458,365.770688 144.73939,373.013189 152.094776,381.263674 C174.863285,406.805587 186.753789,439.768301 204.567218,468.590914 L204.567218,468.595669 C212.349807,481.190704 221.259539,492.998846 232.71077,503.044207 C245.198634,514.000081 260.226792,522.516825 276.309684,526.154123 C270.409687,529.166186 264.325051,531.86682 258.063017,534.219177 L258.063017,534.219177 Z M204.567218,545.347406 L204.567218,545.301049 C201.488696,545.47697 198.399313,545.6101 195.27614,545.6101 C190.41881,545.6101 185.621819,545.362859 180.863446,544.982488 C182.406931,534.395099 186.174529,524.247513 191.944193,515.176854 C195.803508,519.510706 199.970554,523.623467 204.567218,527.423611 L204.567218,527.423611 C204.632384,527.47829 204.695137,527.535345 204.761511,527.591212 C212.033628,533.571358 220.094986,538.688536 228.66923,542.451832 C220.803372,543.938845 212.757702,544.915923 204.567218,545.347406 L204.567218,545.347406 Z M136.663551,535.727586 C136.670792,535.687171 136.687687,535.650323 136.693721,535.609909 C140.444424,513.605446 150.678005,492.639871 165.737539,475.784681 C170.713134,485.024131 175.939742,494.076961 181.943523,502.560423 C173.232912,514.608674 167.616511,528.501725 165.533591,543.094897 C155.605329,541.430774 145.958248,538.955985 136.663551,535.727586 L136.663551,535.727586 Z M97.3523627,516.297759 L97.3523627,516.301325 C96.619841,515.823484 95.8752515,515.362284 95.1523843,514.871368 C95.8161188,512.29792 96.557088,509.74468 97.3523627,507.205704 L97.3523627,507.246118 C105.93264,479.795218 122.007085,454.46132 143.524153,434.686782 C148.727832,443.363996 153.468103,452.375223 158.167344,461.411412 C139.779483,480.268304 127.071983,504.377883 122.060184,529.905532 C113.4256,526.017427 105.178397,521.447032 97.3523627,516.297759 L97.3523627,516.297759 Z M58.5613009,481.706582 C67.5132701,458.410047 80.7143472,436.804973 97.3523627,417.99325 L97.3523627,417.950458 C103.018242,411.544773 109.081156,405.460025 115.519381,399.750894 C121.311974,404.694528 126.55789,410.35849 131.284887,416.48603 C132.595461,418.184624 133.838455,419.931953 135.077829,421.68166 C119.947094,435.156303 107.190116,451.133074 97.3523627,468.632517 L97.3523627,468.657479 C90.8731065,480.176778 85.6464985,492.34865 81.8909676,504.928232 C73.4036127,497.917519 65.5848194,490.147253 58.5613009,481.706582 L58.5613009,481.706582 Z M47.7931127,467.296464 C41.0893935,457.311725 35.4198935,446.60547 30.8932238,435.329847 C41.5419398,415.05845 53.0185139,399.276619 70.1911373,381.33856 C70.526625,380.989094 70.8114275,380.6111 71.0660602,380.220031 C74.7383225,380.710948 78.3900694,381.350446 82.0104398,382.226488 C87.4216867,383.535202 92.5239954,385.428737 97.3523627,387.779905 L97.3523627,387.778716 C99.1866836,388.6714 100.989628,389.617573 102.743094,390.642197 C100.897912,392.326527 99.1372052,394.089309 97.3523627,395.829507 C76.3276651,416.331504 59.412088,440.634834 47.7931127,467.296464 L47.7931127,467.296464 Z M18.7577423,379.704153 C29.6200602,379.465233 40.6030571,378.826923 51.517267,378.936279 C40.7804552,390.941739 32.0746713,402.672619 24.3029429,415.618308 C21.2304552,404.066916 19.3394151,392.051947 18.7577423,379.704153 L18.7577423,379.704153 Z M332.283023,25.0295844 L332.309573,25.0664329 L332.896073,25.8711553 L363.815242,68.3110505 L332.896073,68.3110505 L332.309573,68.3110505 L300.752011,68.3110505 L332.283023,25.0295844 Z M390.117233,74.6561143 C389.897597,73.289156 389.397986,71.9459709 388.523063,70.7454249 L339.852011,3.94157805 C338.224051,1.70689838 335.660829,0.369656557 332.896073,0.187791669 C332.698159,0.173527757 332.508693,0.122415402 332.309573,0.115283446 C332.299918,0.115283446 332.291471,0.115283446 332.283023,0.115283446 C329.280529,0.115283446 326.462674,1.53929741 324.714035,3.94157805 L276.045397,70.7454249 C275.075137,72.0755348 274.561045,73.5768116 274.393301,75.0982956 C274.207455,75.7829635 274.085569,76.4914045 274.06264,77.2295619 L274.06264,154.091845 L238.233042,115.976292 L204.415162,79.5795416 C202.989943,78.0473596 201.074767,77.1095073 199.015983,76.7933239 L199.015983,76.7612301 C198.674461,76.7077405 198.328113,76.6756467 197.981764,76.6494962 C197.97935,76.6494962 197.978144,76.6483075 197.97573,76.6483075 C197.858671,76.6399869 197.745233,76.6114591 197.628174,76.6114591 L197.572662,76.6114591 C197.543699,76.6114591 197.514736,76.6197797 197.485773,76.6197797 C194.953927,76.6435529 192.53914,77.6764979 190.804983,79.5010901 L144.102205,128.577271 L144.105826,107.057781 C144.105826,102.011922 139.954468,97.9217448 134.831644,97.9217448 L113.409912,97.9217448 L93.3204769,97.9217448 C88.1988596,97.9217448 84.0462948,102.011922 84.0462948,107.057781 L84.0462948,138.651159 L72.0556281,138.651159 L60.6743904,138.651159 L60.6743904,106.123495 C60.6743904,101.078824 56.5230324,96.9874585 51.4014151,96.9874585 L31.0380386,96.9874585 L9.2735787,96.9874585 C4.15196142,96.9874585 -0.000603395062,101.078824 -0.000603395062,106.123495 L-0.000603395062,333.20142 L-0.000603395062,335.293461 L-0.000603395062,371.539252 C-0.000603395062,442.45586 39.2043873,504.468221 97.3523627,537.81606 L97.3523627,537.8434 C126.16327,554.365765 159.603424,563.882172 195.27614,563.882172 C198.395693,563.882172 201.486282,563.760929 204.567218,563.602837 L204.567218,563.640875 C228.826113,562.510459 251.936144,556.998646 273.11169,547.897081 C273.362702,547.79129 275.238054,546.931889 276.808088,546.24841 C282.569304,543.629794 288.167603,540.723521 293.607813,537.579517 L293.607813,537.586649 C351.534946,504.186509 390.552884,442.293014 390.552884,371.541629 L390.558918,329.23843 L390.560125,329.23843 L390.605983,77.4494639 C390.605983,76.4878385 390.41169,75.5547409 390.117233,74.6561143 L390.117233,74.6561143 Z" id="Fill-1"></path>
                    </g>
                    <path d="M332.999379,106 C332.994413,106 332.989446,106 332.983238,106 C320.859864,106.010098 311,116.035856 311,128.361367 L311,188.582815 C311,191.261231 313.135621,193.432238 315.771623,193.432238 C318.406383,193.432238 320.543246,191.261231 320.543246,188.582815 L320.543246,128.361367 C320.543246,121.385115 326.121935,115.708943 332.983238,115.70137 C332.989446,115.70137 332.994413,115.698845 332.999379,115.698845 C333.200525,115.698845 333.388013,115.749334 333.586675,115.758169 C340.178542,116.078771 345.456754,121.584545 345.456754,128.361367 L345.456754,209.150577 C345.456754,211.828994 347.592375,214 350.227135,214 C352.863137,214 355,211.828994 355,209.150577 L355,128.361367 C355,116.231499 345.444338,106.350895 333.586675,106.030293 C333.389254,106.025244 333.198042,106 332.999379,106" id="Fill-4"></path>
                </g>
            </g>
        </g>
    </g>
</svg>