<?xml version="1.0" encoding="UTF-8"?>
<svg width="14px" height="12px" viewBox="0 0 14 12" version="1.1" xmlns="http://www.w3.org/2000/svg" xmlns:xlink="http://www.w3.org/1999/xlink">
    <!-- Generator: Sketch 63.1 (92452) - https://sketch.com -->
    <title>Fill 3</title>
    <desc>Created with Sketch.</desc>
    <g id="Unidos-2021-Landing-Page" stroke="none" stroke-width="1" fill="none" fill-rule="evenodd">
        <g id="Home-HD" transform="translate(-1214.000000, -45.000000)" fill="#231F20">
            <g id="Stacked-Group" transform="translate(1214.000000, 43.000000)">
                <path d="M14,3.42002064 C13.4865526,3.65944272 12.9310513,3.82662539 12.3501222,3.89886481 C12.9447433,3.52425181 13.397555,2.92879257 13.6146699,2.22084623 C13.0591687,2.56862745 12.4449878,2.82043344 11.7867971,2.95562436 C11.2655257,2.36945304 10.5173594,2 9.69290954,2 C8.10855746,2 6.82249389,3.35706914 6.82249389,5.02992776 C6.82249389,5.26831785 6.84889976,5.49845201 6.89584352,5.72033024 C4.50660147,5.59236326 2.39315403,4.38906089 0.97408313,2.55417957 C0.725672372,3.00103199 0.584841076,3.52425181 0.584841076,4.07843137 C0.584841076,5.12899897 1.09339853,6.05779154 1.86210269,6.59752322 C1.39168704,6.58513932 0.952567237,6.44582043 0.564303178,6.21981424 L0.564303178,6.25593395 C0.564303178,7.7254902 1.55501222,8.9504644 2.86650367,9.23116615 C2.62689487,9.29824561 2.37066015,9.33333333 2.11051345,9.33333333 C1.92665037,9.33333333 1.74767726,9.31682147 1.56772616,9.28173375 C1.93545232,10.4850361 2.99462103,11.3581011 4.25036675,11.3859649 C3.26748166,12.1971104 2.02836186,12.6800826 0.683618582,12.6800826 C0.452811736,12.6800826 0.22591687,12.6656347 0,12.6398349 C1.27334963,13.500516 2.78141809,14 4.40391198,14 C9.68410758,14 12.5731051,9.38390093 12.5731051,5.38080495 L12.5633252,4.98968008 C13.1286064,4.56037152 13.6146699,4.02889577 14,3.42002064" id="Fill-3"></path>
            </g>
        </g>
    </g>
</svg>