<?xml version="1.0" encoding="UTF-8"?>
<svg width="18px" height="12px" viewBox="0 0 18 12" version="1.1" xmlns="http://www.w3.org/2000/svg" xmlns:xlink="http://www.w3.org/1999/xlink">
    <!-- Generator: Sketch 63.1 (92452) - https://sketch.com -->
    <title>Fill 12</title>
    <desc>Created with Sketch.</desc>
    <g id="Unidos-2021-Landing-Page" stroke="none" stroke-width="1" fill="none" fill-rule="evenodd">
        <g id="Home-HD" transform="translate(-1312.000000, -45.000000)" fill="#231F20">
            <g id="Stacked-Group" transform="translate(1214.000000, 43.000000)">
                <path d="M104.749875,11.2720654 L104.749875,4.72793463 L110.374437,7.9995146 L104.749875,11.2720654 Z M115.234106,3.15621713 C114.746538,2.31356686 114.215919,2.15921042 113.137661,2.10096271 C112.060404,2.02912386 109.349241,2 107.002503,2 C104.649758,2 101.938595,2.02912386 100.862339,2.09999191 C99.7860838,2.15921042 99.2544635,2.31259607 98.7618889,3.15621713 C98.2593025,3.99789661 98,5.44632311 98,7.99660222 L98,7.9995146 L98,8.00339778 L98,8.00533937 C98,10.5449397 98.2593025,12.004045 98.7618889,12.8360165 C99.2544635,13.6786668 99.7850826,13.8310816 100.861338,13.9019497 C101.938595,13.9631098 104.649758,14 107.002503,14 C109.349241,14 112.060404,13.9631098 113.138662,13.9029205 C114.217921,13.8330232 114.747539,13.6786668 115.235108,12.8369873 C115.7427,12.0050158 116,10.5459105 116,8.00631017 L116,8.0004854 L116,7.99757301 C116,5.44632311 115.7427,3.99789661 115.234106,3.15621713 L115.234106,3.15621713 Z" id="Fill-12"></path>
            </g>
        </g>
    </g>
</svg>